M48
; DRILL file {KiCad (5.1.6)-1} date 09/25/20 14:13:54
; FORMAT={-:-/ absolute / inch / decimal}
; #@! TF.CreationDate,2020-09-25T14:13:54-07:00
; #@! TF.GenerationSoftware,Kicad,Pcbnew,(5.1.6)-1
; #@! TF.FileFunction,Plated,1,2,PTH
FMAT,2
INCH
T1C0.0201
T2C0.0276
T3C0.0315
T4C0.0354
T5C0.0394
T6C0.0433
T7C0.0551
T8C0.0591
T9C0.0598
%
G90
G05
T1
X3.4Y-4.475
X3.4Y-4.7
X3.45Y-2.925
X3.6Y-2.95
X3.875Y-5.3487
X4.0237Y-5.4
X4.125Y-2.875
X4.175Y-3.0
X4.175Y-3.075
X4.225Y-3.05
X4.225Y-5.525
X4.25Y-3.1
X4.3Y-2.875
X4.3Y-5.125
X4.325Y-4.825
X4.35Y-5.2
X4.375Y-4.775
X4.45Y-4.925
X4.4906Y-5.0094
X4.65Y-5.4
X4.675Y-2.85
X4.675Y-3.225
X4.675Y-3.9
X4.75Y-4.875
X4.75Y-5.025
X4.75Y-5.175
X4.7986Y-5.4486
X4.8979Y-4.6021
X4.95Y-5.275
T2
X4.75Y-4.0
X4.95Y-4.0
X4.75Y-4.45
X4.95Y-4.45
X4.75Y-3.4
X4.95Y-3.4
T3
X3.95Y-3.25
X3.95Y-3.4469
X3.95Y-4.25
X4.0484Y-4.25
X4.25Y-3.2
X4.25Y-3.3
X4.25Y-3.4
X4.25Y-3.5
X4.25Y-3.6
X4.25Y-3.7
X4.25Y-3.8
X4.25Y-3.9
X4.25Y-4.0
X4.25Y-4.1
X4.25Y-4.2
X4.25Y-4.3
X4.25Y-4.4
X4.25Y-4.5
X4.55Y-3.2
X4.55Y-3.3
X4.55Y-3.4
X4.55Y-3.5
X4.55Y-3.6
X4.55Y-3.7
X4.55Y-3.8
X4.55Y-3.9
X4.55Y-4.0
X4.55Y-4.1
X4.55Y-4.2
X4.55Y-4.3
X4.55Y-4.4
X4.55Y-4.5
X2.5713Y-3.0
X2.65Y-3.0
X3.95Y-3.85
X4.0484Y-3.85
X4.025Y-3.6
X4.025Y-3.6787
T4
X4.8Y-4.25
X4.9Y-4.25
X4.8Y-3.8
X4.9Y-3.8
T5
X4.75Y-2.9941
X4.75Y-3.25
X4.9272Y-2.9941
X4.9272Y-3.25
X2.35Y-3.2
X2.45Y-3.2
X2.55Y-3.2
X2.65Y-3.2
X2.75Y-3.2
X2.85Y-3.2
X2.95Y-3.2
X3.05Y-3.2
X3.15Y-3.2
X3.25Y-3.2
X4.1Y-4.0
X4.1Y-4.1
T6
X3.55Y-3.977
X3.65Y-3.977
X3.75Y-3.977
T7
X2.5Y-5.1287
X2.5Y-5.4713
X2.7Y-5.1287
X2.7Y-5.4713
X3.05Y-5.1287
X3.05Y-5.4713
X3.25Y-5.1287
X3.25Y-5.4713
T8
X2.5638Y-4.5319
X2.7606Y-4.5319
X2.9811Y-4.5319
X3.178Y-4.5319
T9
X2.55Y-4.85
X2.75Y-4.85
T0
M30
