%TF.GenerationSoftware,KiCad,Pcbnew,(5.1.6)-1*%
%TF.CreationDate,2020-09-25T14:13:56-07:00*%
%TF.ProjectId,Main Board,4d61696e-2042-46f6-9172-642e6b696361,rev?*%
%TF.SameCoordinates,Original*%
%TF.FileFunction,Profile,NP*%
%FSLAX46Y46*%
G04 Gerber Fmt 4.6, Leading zero omitted, Abs format (unit mm)*
G04 Created by KiCad (PCBNEW (5.1.6)-1) date 2020-09-25 14:13:56*
%MOMM*%
%LPD*%
G01*
G04 APERTURE LIST*
%TA.AperFunction,Profile*%
%ADD10C,0.200000*%
%TD*%
G04 APERTURE END LIST*
D10*
X56106038Y-72227595D02*
X56756600Y-72357000D01*
X57958682Y-71859082D02*
X58327195Y-71307562D01*
X55554518Y-71859082D02*
X56106038Y-72227595D01*
X57407162Y-72227595D02*
X57958682Y-71859082D01*
X55056600Y-70657000D02*
X55186005Y-71307562D01*
X55186005Y-71307562D02*
X55554518Y-71859082D01*
X56756600Y-72357000D02*
X57407162Y-72227595D01*
X58327195Y-71307562D02*
X58456600Y-70657000D01*
X125640062Y-69019405D02*
X124989500Y-68890000D01*
X125624062Y-140443896D02*
X126175582Y-140075382D01*
X57892082Y-140092082D02*
X58260595Y-139540562D01*
X126544095Y-139523862D02*
X126673500Y-138873300D01*
X56690000Y-140590000D02*
X57340562Y-140460596D01*
X55186005Y-70006438D02*
X55056600Y-70657000D01*
X57958682Y-69454918D02*
X57407162Y-69086405D01*
X56039438Y-140460596D02*
X56690000Y-140590000D01*
X123418905Y-71240562D02*
X123787418Y-71792082D01*
X123402905Y-138222738D02*
X123273500Y-138873300D01*
X124989500Y-68890000D02*
X124338938Y-69019405D01*
X58260595Y-138239438D02*
X57892082Y-137687918D01*
X126191582Y-71792082D02*
X126560095Y-71240562D01*
X56756600Y-68957000D02*
X56106038Y-69086405D01*
X57407162Y-69086405D02*
X56756600Y-68957000D01*
X126560095Y-71240562D02*
X126689500Y-70590000D01*
X124989500Y-72290000D02*
X125640062Y-72160595D01*
X123787418Y-71792082D02*
X124338938Y-72160595D01*
X126544095Y-138222738D02*
X126175582Y-137671218D01*
X126673500Y-138873300D02*
X126544095Y-138222738D01*
X58260595Y-139540562D02*
X58390000Y-138890000D01*
X123418905Y-69939438D02*
X123289500Y-70590000D01*
X58390000Y-138890000D02*
X58390000Y-138890000D01*
X55119405Y-138239438D02*
X54990000Y-138890000D01*
X126175582Y-137671218D02*
X125624062Y-137302705D01*
X128340000Y-67240000D02*
X53340000Y-67240000D01*
X55554518Y-69454918D02*
X55186005Y-70006438D01*
X56106038Y-69086405D02*
X55554518Y-69454918D01*
X124973500Y-137173300D02*
X124322938Y-137302705D01*
X58327195Y-70006438D02*
X57958682Y-69454918D01*
X124338938Y-69019405D02*
X123787418Y-69387918D01*
X123771418Y-140075382D02*
X124322938Y-140443896D01*
X57340562Y-137319405D02*
X56690000Y-137190000D01*
X56690000Y-137190000D02*
X56039438Y-137319405D01*
X57892082Y-137687918D02*
X57340562Y-137319405D01*
X58456600Y-70657000D02*
X58327195Y-70006438D01*
X125640062Y-72160595D02*
X126191582Y-71792082D01*
X126689500Y-70590000D02*
X126560095Y-69939438D01*
X124322938Y-137302705D02*
X123771418Y-137671218D01*
X56039438Y-137319405D02*
X55487918Y-137687918D01*
X123289500Y-70590000D02*
X123418905Y-71240562D01*
X54990000Y-138890000D02*
X55119405Y-139540562D01*
X124338938Y-72160595D02*
X124989500Y-72290000D01*
X125624062Y-137302705D02*
X124973500Y-137173300D01*
X124973500Y-140573300D02*
X125624062Y-140443896D01*
X123787418Y-69387918D02*
X123418905Y-69939438D01*
X126560095Y-69939438D02*
X126191582Y-69387918D01*
X123402905Y-139523862D02*
X123771418Y-140075382D01*
X126191582Y-69387918D02*
X125640062Y-69019405D01*
X123273500Y-138873300D02*
X123402905Y-139523862D01*
X55487918Y-140092082D02*
X56039438Y-140460596D01*
X57340562Y-140460596D02*
X57892082Y-140092082D01*
X55119405Y-139540562D02*
X55487918Y-140092082D01*
X128340000Y-142240000D02*
X128340000Y-67240000D01*
X53340000Y-67240000D02*
X53340000Y-142240000D01*
X58390000Y-138890000D02*
X58260595Y-138239438D01*
X123771418Y-137671218D02*
X123402905Y-138222738D01*
X55487918Y-137687918D02*
X55119405Y-138239438D01*
X124322938Y-140443896D02*
X124973500Y-140573300D01*
X126175582Y-140075382D02*
X126544095Y-139523862D01*
X53340000Y-142240000D02*
X128340000Y-142240000D01*
M02*
