%TF.GenerationSoftware,KiCad,Pcbnew,(5.1.6)-1*%
%TF.CreationDate,2020-09-25T14:13:56-07:00*%
%TF.ProjectId,Main Board,4d61696e-2042-46f6-9172-642e6b696361,rev?*%
%TF.SameCoordinates,Original*%
%TF.FileFunction,Soldermask,Top*%
%TF.FilePolarity,Negative*%
%FSLAX46Y46*%
G04 Gerber Fmt 4.6, Leading zero omitted, Abs format (unit mm)*
G04 Created by KiCad (PCBNEW (5.1.6)-1) date 2020-09-25 14:13:56*
%MOMM*%
%LPD*%
G01*
G04 APERTURE LIST*
%ADD10C,1.700000*%
%ADD11R,1.700000X1.700000*%
%ADD12C,1.900000*%
%ADD13R,1.900000X1.900000*%
%ADD14R,3.100000X3.100000*%
%ADD15C,3.100000*%
%ADD16C,2.900000*%
%ADD17R,2.100000X3.100000*%
%ADD18R,3.100000X2.100000*%
%ADD19C,0.100000*%
%ADD20R,2.100000X2.100000*%
%ADD21C,2.100000*%
%ADD22C,1.500000*%
%ADD23O,1.500000X1.500000*%
%ADD24C,1.800000*%
%ADD25O,3.600000X3.600000*%
%ADD26R,2.005000X2.100000*%
%ADD27O,2.005000X2.100000*%
%ADD28O,1.700000X1.700000*%
%ADD29R,1.800000X1.800000*%
%ADD30O,1.800000X1.800000*%
G04 APERTURE END LIST*
%TO.C,C1*%
G36*
G01*
X89755000Y-104795000D02*
X89755000Y-103485000D01*
G75*
G02*
X90025000Y-103215000I270000J0D01*
G01*
X90835000Y-103215000D01*
G75*
G02*
X91105000Y-103485000I0J-270000D01*
G01*
X91105000Y-104795000D01*
G75*
G02*
X90835000Y-105065000I-270000J0D01*
G01*
X90025000Y-105065000D01*
G75*
G02*
X89755000Y-104795000I0J270000D01*
G01*
G37*
G36*
G01*
X86955000Y-104795000D02*
X86955000Y-103485000D01*
G75*
G02*
X87225000Y-103215000I270000J0D01*
G01*
X88035000Y-103215000D01*
G75*
G02*
X88305000Y-103485000I0J-270000D01*
G01*
X88305000Y-104795000D01*
G75*
G02*
X88035000Y-105065000I-270000J0D01*
G01*
X87225000Y-105065000D01*
G75*
G02*
X86955000Y-104795000I0J270000D01*
G01*
G37*
%TD*%
%TO.C,C2*%
G36*
G01*
X96055000Y-103485000D02*
X96055000Y-104795000D01*
G75*
G02*
X95785000Y-105065000I-270000J0D01*
G01*
X94975000Y-105065000D01*
G75*
G02*
X94705000Y-104795000I0J270000D01*
G01*
X94705000Y-103485000D01*
G75*
G02*
X94975000Y-103215000I270000J0D01*
G01*
X95785000Y-103215000D01*
G75*
G02*
X96055000Y-103485000I0J-270000D01*
G01*
G37*
G36*
G01*
X93255000Y-103485000D02*
X93255000Y-104795000D01*
G75*
G02*
X92985000Y-105065000I-270000J0D01*
G01*
X92175000Y-105065000D01*
G75*
G02*
X91905000Y-104795000I0J270000D01*
G01*
X91905000Y-103485000D01*
G75*
G02*
X92175000Y-103215000I270000J0D01*
G01*
X92985000Y-103215000D01*
G75*
G02*
X93255000Y-103485000I0J-270000D01*
G01*
G37*
%TD*%
D10*
%TO.C,C3*%
X102830000Y-97790000D03*
X100330000Y-97790000D03*
%TD*%
%TO.C,C4*%
X100330000Y-107950000D03*
X102830000Y-107950000D03*
%TD*%
%TO.C,C5*%
X102235000Y-93440000D03*
D11*
X102235000Y-91440000D03*
%TD*%
%TO.C,C6*%
X67310000Y-76200000D03*
D10*
X65310000Y-76200000D03*
%TD*%
D12*
%TO.C,D1*%
X124460000Y-107950000D03*
D13*
X121920000Y-107950000D03*
%TD*%
%TO.C,D2*%
X121920000Y-96520000D03*
D12*
X124460000Y-96520000D03*
%TD*%
D14*
%TO.C,F1*%
X64770000Y-123190000D03*
D15*
X69850000Y-123190000D03*
%TD*%
D10*
%TO.C,F2*%
X100330000Y-82550000D03*
X100330000Y-87550000D03*
%TD*%
D16*
%TO.C,J1*%
X63500000Y-130270000D03*
X68580000Y-130270000D03*
X63500000Y-138970000D03*
X68580000Y-138970000D03*
%TD*%
%TO.C,J2*%
G36*
G01*
X108475000Y-71400000D02*
X107425000Y-71400000D01*
G75*
G02*
X106900000Y-70875000I0J525000D01*
G01*
X106900000Y-68825000D01*
G75*
G02*
X107425000Y-68300000I525000J0D01*
G01*
X108475000Y-68300000D01*
G75*
G02*
X109000000Y-68825000I0J-525000D01*
G01*
X109000000Y-70875000D01*
G75*
G02*
X108475000Y-71400000I-525000J0D01*
G01*
G37*
G36*
G01*
X111015000Y-71400000D02*
X109965000Y-71400000D01*
G75*
G02*
X109440000Y-70875000I0J525000D01*
G01*
X109440000Y-68825000D01*
G75*
G02*
X109965000Y-68300000I525000J0D01*
G01*
X111015000Y-68300000D01*
G75*
G02*
X111540000Y-68825000I0J-525000D01*
G01*
X111540000Y-70875000D01*
G75*
G02*
X111015000Y-71400000I-525000J0D01*
G01*
G37*
G36*
G01*
X113555000Y-71400000D02*
X112505000Y-71400000D01*
G75*
G02*
X111980000Y-70875000I0J525000D01*
G01*
X111980000Y-68825000D01*
G75*
G02*
X112505000Y-68300000I525000J0D01*
G01*
X113555000Y-68300000D01*
G75*
G02*
X114080000Y-68825000I0J-525000D01*
G01*
X114080000Y-70875000D01*
G75*
G02*
X113555000Y-71400000I-525000J0D01*
G01*
G37*
G36*
G01*
X116095000Y-71400000D02*
X115045000Y-71400000D01*
G75*
G02*
X114520000Y-70875000I0J525000D01*
G01*
X114520000Y-68825000D01*
G75*
G02*
X115045000Y-68300000I525000J0D01*
G01*
X116095000Y-68300000D01*
G75*
G02*
X116620000Y-68825000I0J-525000D01*
G01*
X116620000Y-70875000D01*
G75*
G02*
X116095000Y-71400000I-525000J0D01*
G01*
G37*
G36*
G01*
X118635000Y-71400000D02*
X117585000Y-71400000D01*
G75*
G02*
X117060000Y-70875000I0J525000D01*
G01*
X117060000Y-68825000D01*
G75*
G02*
X117585000Y-68300000I525000J0D01*
G01*
X118635000Y-68300000D01*
G75*
G02*
X119160000Y-68825000I0J-525000D01*
G01*
X119160000Y-70875000D01*
G75*
G02*
X118635000Y-71400000I-525000J0D01*
G01*
G37*
D17*
X120650000Y-69850000D03*
%TD*%
%TO.C,J3*%
G36*
G01*
X116315000Y-138150000D02*
X117365000Y-138150000D01*
G75*
G02*
X117890000Y-138675000I0J-525000D01*
G01*
X117890000Y-140725000D01*
G75*
G02*
X117365000Y-141250000I-525000J0D01*
G01*
X116315000Y-141250000D01*
G75*
G02*
X115790000Y-140725000I0J525000D01*
G01*
X115790000Y-138675000D01*
G75*
G02*
X116315000Y-138150000I525000J0D01*
G01*
G37*
G36*
G01*
X113775000Y-138150000D02*
X114825000Y-138150000D01*
G75*
G02*
X115350000Y-138675000I0J-525000D01*
G01*
X115350000Y-140725000D01*
G75*
G02*
X114825000Y-141250000I-525000J0D01*
G01*
X113775000Y-141250000D01*
G75*
G02*
X113250000Y-140725000I0J525000D01*
G01*
X113250000Y-138675000D01*
G75*
G02*
X113775000Y-138150000I525000J0D01*
G01*
G37*
G36*
G01*
X111235000Y-138150000D02*
X112285000Y-138150000D01*
G75*
G02*
X112810000Y-138675000I0J-525000D01*
G01*
X112810000Y-140725000D01*
G75*
G02*
X112285000Y-141250000I-525000J0D01*
G01*
X111235000Y-141250000D01*
G75*
G02*
X110710000Y-140725000I0J525000D01*
G01*
X110710000Y-138675000D01*
G75*
G02*
X111235000Y-138150000I525000J0D01*
G01*
G37*
X109220000Y-139700000D03*
%TD*%
%TO.C,J4*%
X95250000Y-139700000D03*
G36*
G01*
X97265000Y-138150000D02*
X98315000Y-138150000D01*
G75*
G02*
X98840000Y-138675000I0J-525000D01*
G01*
X98840000Y-140725000D01*
G75*
G02*
X98315000Y-141250000I-525000J0D01*
G01*
X97265000Y-141250000D01*
G75*
G02*
X96740000Y-140725000I0J525000D01*
G01*
X96740000Y-138675000D01*
G75*
G02*
X97265000Y-138150000I525000J0D01*
G01*
G37*
G36*
G01*
X99805000Y-138150000D02*
X100855000Y-138150000D01*
G75*
G02*
X101380000Y-138675000I0J-525000D01*
G01*
X101380000Y-140725000D01*
G75*
G02*
X100855000Y-141250000I-525000J0D01*
G01*
X99805000Y-141250000D01*
G75*
G02*
X99280000Y-140725000I0J525000D01*
G01*
X99280000Y-138675000D01*
G75*
G02*
X99805000Y-138150000I525000J0D01*
G01*
G37*
G36*
G01*
X102345000Y-138150000D02*
X103395000Y-138150000D01*
G75*
G02*
X103920000Y-138675000I0J-525000D01*
G01*
X103920000Y-140725000D01*
G75*
G02*
X103395000Y-141250000I-525000J0D01*
G01*
X102345000Y-141250000D01*
G75*
G02*
X101820000Y-140725000I0J525000D01*
G01*
X101820000Y-138675000D01*
G75*
G02*
X102345000Y-138150000I525000J0D01*
G01*
G37*
%TD*%
D18*
%TO.C,J6*%
X125730000Y-132080000D03*
G36*
G01*
X124180000Y-130065000D02*
X124180000Y-129015000D01*
G75*
G02*
X124705000Y-128490000I525000J0D01*
G01*
X126755000Y-128490000D01*
G75*
G02*
X127280000Y-129015000I0J-525000D01*
G01*
X127280000Y-130065000D01*
G75*
G02*
X126755000Y-130590000I-525000J0D01*
G01*
X124705000Y-130590000D01*
G75*
G02*
X124180000Y-130065000I0J525000D01*
G01*
G37*
G36*
G01*
X124180000Y-127525000D02*
X124180000Y-126475000D01*
G75*
G02*
X124705000Y-125950000I525000J0D01*
G01*
X126755000Y-125950000D01*
G75*
G02*
X127280000Y-126475000I0J-525000D01*
G01*
X127280000Y-127525000D01*
G75*
G02*
X126755000Y-128050000I-525000J0D01*
G01*
X124705000Y-128050000D01*
G75*
G02*
X124180000Y-127525000I0J525000D01*
G01*
G37*
G36*
G01*
X124180000Y-124985000D02*
X124180000Y-123935000D01*
G75*
G02*
X124705000Y-123410000I525000J0D01*
G01*
X126755000Y-123410000D01*
G75*
G02*
X127280000Y-123935000I0J-525000D01*
G01*
X127280000Y-124985000D01*
G75*
G02*
X126755000Y-125510000I-525000J0D01*
G01*
X124705000Y-125510000D01*
G75*
G02*
X124180000Y-124985000I0J525000D01*
G01*
G37*
G36*
G01*
X124180000Y-122445000D02*
X124180000Y-121395000D01*
G75*
G02*
X124705000Y-120870000I525000J0D01*
G01*
X126755000Y-120870000D01*
G75*
G02*
X127280000Y-121395000I0J-525000D01*
G01*
X127280000Y-122445000D01*
G75*
G02*
X126755000Y-122970000I-525000J0D01*
G01*
X124705000Y-122970000D01*
G75*
G02*
X124180000Y-122445000I0J525000D01*
G01*
G37*
G36*
G01*
X124180000Y-119905000D02*
X124180000Y-118855000D01*
G75*
G02*
X124705000Y-118330000I525000J0D01*
G01*
X126755000Y-118330000D01*
G75*
G02*
X127280000Y-118855000I0J-525000D01*
G01*
X127280000Y-119905000D01*
G75*
G02*
X126755000Y-120430000I-525000J0D01*
G01*
X124705000Y-120430000D01*
G75*
G02*
X124180000Y-119905000I0J525000D01*
G01*
G37*
%TD*%
D19*
%TO.C,J7*%
G36*
X66669039Y-116619755D02*
G01*
X66666194Y-116629134D01*
X66661573Y-116637779D01*
X66655355Y-116645355D01*
X66647779Y-116651573D01*
X66639134Y-116656194D01*
X66629755Y-116659039D01*
X66620000Y-116660000D01*
X63620000Y-116660000D01*
X63610245Y-116659039D01*
X63600866Y-116656194D01*
X63592221Y-116651573D01*
X63584645Y-116645355D01*
X63578427Y-116637779D01*
X63573806Y-116629134D01*
X63570961Y-116619755D01*
X63570000Y-116610000D01*
X63570000Y-113610000D01*
X63570961Y-113600245D01*
X63573806Y-113590866D01*
X63578427Y-113582221D01*
X63584645Y-113574645D01*
X63592221Y-113568427D01*
X63600866Y-113563806D01*
X63610245Y-113560961D01*
X63620000Y-113560000D01*
X66620000Y-113560000D01*
X66629755Y-113560961D01*
X66639134Y-113563806D01*
X66647779Y-113568427D01*
X66655355Y-113574645D01*
X66661573Y-113582221D01*
X66666194Y-113590866D01*
X66669039Y-113600245D01*
X66670000Y-113610000D01*
X66670000Y-116610000D01*
X66669039Y-116619755D01*
G37*
G36*
X71669039Y-116619755D02*
G01*
X71666194Y-116629134D01*
X71661573Y-116637779D01*
X71655355Y-116645355D01*
X71647779Y-116651573D01*
X71639134Y-116656194D01*
X71629755Y-116659039D01*
X71620000Y-116660000D01*
X68620000Y-116660000D01*
X68610245Y-116659039D01*
X68600866Y-116656194D01*
X68592221Y-116651573D01*
X68584645Y-116645355D01*
X68578427Y-116637779D01*
X68573806Y-116629134D01*
X68570961Y-116619755D01*
X68570000Y-116610000D01*
X68570000Y-113610000D01*
X68570961Y-113600245D01*
X68573806Y-113590866D01*
X68578427Y-113582221D01*
X68584645Y-113574645D01*
X68592221Y-113568427D01*
X68600866Y-113563806D01*
X68610245Y-113560961D01*
X68620000Y-113560000D01*
X71620000Y-113560000D01*
X71629755Y-113560961D01*
X71639134Y-113563806D01*
X71647779Y-113568427D01*
X71655355Y-113574645D01*
X71661573Y-113582221D01*
X71666194Y-113590866D01*
X71669039Y-113600245D01*
X71670000Y-113610000D01*
X71670000Y-116610000D01*
X71669039Y-116619755D01*
G37*
G36*
X77269039Y-116619755D02*
G01*
X77266194Y-116629134D01*
X77261573Y-116637779D01*
X77255355Y-116645355D01*
X77247779Y-116651573D01*
X77239134Y-116656194D01*
X77229755Y-116659039D01*
X77220000Y-116660000D01*
X74220000Y-116660000D01*
X74210245Y-116659039D01*
X74200866Y-116656194D01*
X74192221Y-116651573D01*
X74184645Y-116645355D01*
X74178427Y-116637779D01*
X74173806Y-116629134D01*
X74170961Y-116619755D01*
X74170000Y-116610000D01*
X74170000Y-113610000D01*
X74170961Y-113600245D01*
X74173806Y-113590866D01*
X74178427Y-113582221D01*
X74184645Y-113574645D01*
X74192221Y-113568427D01*
X74200866Y-113563806D01*
X74210245Y-113560961D01*
X74220000Y-113560000D01*
X77220000Y-113560000D01*
X77229755Y-113560961D01*
X77239134Y-113563806D01*
X77247779Y-113568427D01*
X77255355Y-113574645D01*
X77261573Y-113582221D01*
X77266194Y-113590866D01*
X77269039Y-113600245D01*
X77270000Y-113610000D01*
X77270000Y-116610000D01*
X77269039Y-116619755D01*
G37*
G36*
X82269039Y-116619755D02*
G01*
X82266194Y-116629134D01*
X82261573Y-116637779D01*
X82255355Y-116645355D01*
X82247779Y-116651573D01*
X82239134Y-116656194D01*
X82229755Y-116659039D01*
X82220000Y-116660000D01*
X79220000Y-116660000D01*
X79210245Y-116659039D01*
X79200866Y-116656194D01*
X79192221Y-116651573D01*
X79184645Y-116645355D01*
X79178427Y-116637779D01*
X79173806Y-116629134D01*
X79170961Y-116619755D01*
X79170000Y-116610000D01*
X79170000Y-113610000D01*
X79170961Y-113600245D01*
X79173806Y-113590866D01*
X79178427Y-113582221D01*
X79184645Y-113574645D01*
X79192221Y-113568427D01*
X79200866Y-113563806D01*
X79210245Y-113560961D01*
X79220000Y-113560000D01*
X82220000Y-113560000D01*
X82229755Y-113560961D01*
X82239134Y-113563806D01*
X82247779Y-113568427D01*
X82255355Y-113574645D01*
X82261573Y-113582221D01*
X82266194Y-113590866D01*
X82269039Y-113600245D01*
X82270000Y-113610000D01*
X82270000Y-116610000D01*
X82269039Y-116619755D01*
G37*
D20*
X59690000Y-81280000D03*
D21*
X62230000Y-81280000D03*
X64770000Y-81280000D03*
X67310000Y-81280000D03*
X69850000Y-81280000D03*
X72390000Y-81280000D03*
X74930000Y-81280000D03*
X77470000Y-81280000D03*
X80010000Y-81280000D03*
X82550000Y-81280000D03*
%TD*%
D16*
%TO.C,J8*%
X82550000Y-138970000D03*
X77470000Y-138970000D03*
X82550000Y-130270000D03*
X77470000Y-130270000D03*
%TD*%
D22*
%TO.C,R1*%
X125730000Y-86360000D03*
D23*
X120650000Y-86360000D03*
%TD*%
%TO.C,R2*%
X125730000Y-113030000D03*
D22*
X120650000Y-113030000D03*
%TD*%
%TO.C,R3*%
X125730000Y-101600000D03*
D23*
X120650000Y-101600000D03*
%TD*%
D24*
%TO.C,SW1*%
X125150000Y-76050000D03*
X125150000Y-82550000D03*
X120650000Y-76050000D03*
X120650000Y-82550000D03*
%TD*%
D21*
%TO.C,TP1*%
X103505000Y-119380000D03*
%TD*%
%TO.C,TP2*%
X107950000Y-120015000D03*
%TD*%
%TO.C,TP3*%
X111125000Y-135255000D03*
%TD*%
%TO.C,TP4*%
X114935000Y-135255000D03*
%TD*%
%TO.C,TP5*%
X89535000Y-78740000D03*
%TD*%
%TO.C,TP6*%
X120650000Y-131445000D03*
%TD*%
%TO.C,TP7*%
X120650000Y-127635000D03*
%TD*%
%TO.C,TP8*%
X120650000Y-123825000D03*
%TD*%
%TO.C,TP9*%
X69850000Y-71120000D03*
%TD*%
%TO.C,TP10*%
X93980000Y-78740000D03*
%TD*%
%TO.C,TP11*%
X88265000Y-108585000D03*
%TD*%
%TO.C,TP12*%
X89535000Y-120015000D03*
%TD*%
%TO.C,TP13*%
X89535000Y-114300000D03*
%TD*%
D25*
%TO.C,U1*%
X92710000Y-84355001D03*
D26*
X90170000Y-101015001D03*
D27*
X92710000Y-101015001D03*
X95250000Y-101015001D03*
%TD*%
D11*
%TO.C,U2*%
X107950000Y-81280000D03*
D28*
X115570000Y-114300000D03*
X107950000Y-83820000D03*
X115570000Y-111760000D03*
X107950000Y-86360000D03*
X115570000Y-109220000D03*
X107950000Y-88900000D03*
X115570000Y-106680000D03*
X107950000Y-91440000D03*
X115570000Y-104140000D03*
X107950000Y-93980000D03*
X115570000Y-101600000D03*
X107950000Y-96520000D03*
X115570000Y-99060000D03*
X107950000Y-99060000D03*
X115570000Y-96520000D03*
X107950000Y-101600000D03*
X115570000Y-93980000D03*
X107950000Y-104140000D03*
X115570000Y-91440000D03*
X107950000Y-106680000D03*
X115570000Y-88900000D03*
X107950000Y-109220000D03*
X115570000Y-86360000D03*
X107950000Y-111760000D03*
X115570000Y-83820000D03*
X107950000Y-114300000D03*
X115570000Y-81280000D03*
%TD*%
D29*
%TO.C,Y1*%
X104140000Y-101600000D03*
D30*
X104140000Y-104140000D03*
%TD*%
M02*
