%TF.GenerationSoftware,KiCad,Pcbnew,(5.1.6)-1*%
%TF.CreationDate,2020-09-29T17:07:27-07:00*%
%TF.ProjectId,TSSOP16 Breakout,5453534f-5031-4362-9042-7265616b6f75,rev?*%
%TF.SameCoordinates,Original*%
%TF.FileFunction,Profile,NP*%
%FSLAX46Y46*%
G04 Gerber Fmt 4.6, Leading zero omitted, Abs format (unit mm)*
G04 Created by KiCad (PCBNEW (5.1.6)-1) date 2020-09-29 17:07:27*
%MOMM*%
%LPD*%
G01*
G04 APERTURE LIST*
%TA.AperFunction,Profile*%
%ADD10C,0.200000*%
%TD*%
G04 APERTURE END LIST*
D10*
X151306140Y-109003815D02*
X151456069Y-108871355D01*
X151456069Y-108871355D02*
X151653984Y-108739344D01*
X151653984Y-108739344D02*
X151868153Y-108638124D01*
X151868153Y-108638124D02*
X152094991Y-108569181D01*
X152094991Y-108569181D02*
X152330915Y-108533999D01*
X152330915Y-108533999D02*
X152451165Y-108529532D01*
X151306140Y-111293863D02*
X151173679Y-111143934D01*
X151173679Y-111143934D02*
X151041668Y-110946018D01*
X151041668Y-110946018D02*
X150940448Y-110731850D01*
X150940448Y-110731850D02*
X150871505Y-110505011D01*
X150871505Y-110505011D02*
X150836322Y-110269088D01*
X150836322Y-110269088D02*
X150831855Y-110148839D01*
X150831855Y-110148839D02*
X150844207Y-109949160D01*
X150844207Y-109949160D02*
X150890808Y-109715866D01*
X150890808Y-109715866D02*
X150970675Y-109492853D01*
X150970675Y-109492853D02*
X151082324Y-109283704D01*
X151082324Y-109283704D02*
X151224269Y-109092002D01*
X151224269Y-109092002D02*
X151306140Y-109003815D01*
X152451165Y-108529532D02*
X152697768Y-108548191D01*
X152697768Y-108548191D02*
X152932695Y-108602334D01*
X152932695Y-108602334D02*
X153153199Y-108689215D01*
X153153199Y-108689215D02*
X153356531Y-108806086D01*
X153356531Y-108806086D02*
X153539946Y-108950201D01*
X153539946Y-108950201D02*
X153700696Y-109118811D01*
X153700696Y-109118811D02*
X153836033Y-109309171D01*
X153836033Y-109309171D02*
X153943212Y-109518533D01*
X153943212Y-109518533D02*
X154019485Y-109744150D01*
X154019485Y-109744150D02*
X154062104Y-109983274D01*
X154062104Y-109983274D02*
X154070465Y-110148839D01*
X143612330Y-92710000D02*
X143834524Y-92493249D01*
X143834524Y-92493249D02*
X144061485Y-92282570D01*
X144061485Y-92282570D02*
X144293083Y-92078016D01*
X144293083Y-92078016D02*
X144529191Y-91879641D01*
X144529191Y-91879641D02*
X144769681Y-91687497D01*
X144769681Y-91687497D02*
X145014424Y-91501637D01*
X145014424Y-91501637D02*
X145263292Y-91322114D01*
X145263292Y-91322114D02*
X145516158Y-91148981D01*
X145516158Y-91148981D02*
X145772893Y-90982292D01*
X145772893Y-90982292D02*
X146033370Y-90822100D01*
X146033370Y-90822100D02*
X146297459Y-90668457D01*
X146297459Y-90668457D02*
X146565034Y-90521416D01*
X146565034Y-90521416D02*
X146835965Y-90381031D01*
X146835965Y-90381031D02*
X147110126Y-90247355D01*
X147110126Y-90247355D02*
X147387387Y-90120440D01*
X147387387Y-90120440D02*
X147667622Y-90000341D01*
X147667622Y-90000341D02*
X147950701Y-89887108D01*
X147950701Y-89887108D02*
X148236496Y-89780797D01*
X148236496Y-89780797D02*
X148524880Y-89681460D01*
X148524880Y-89681460D02*
X148815725Y-89589149D01*
X148815725Y-89589149D02*
X149108902Y-89503919D01*
X149108902Y-89503919D02*
X149404284Y-89425821D01*
X149404284Y-89425821D02*
X149701742Y-89354910D01*
X149701742Y-89354910D02*
X150001148Y-89291238D01*
X150001148Y-89291238D02*
X150302374Y-89234858D01*
X150302374Y-89234858D02*
X150605292Y-89185823D01*
X150605292Y-89185823D02*
X150909775Y-89144186D01*
X150909775Y-89144186D02*
X151215693Y-89110001D01*
X151215693Y-89110001D02*
X151522919Y-89083320D01*
X151522919Y-89083320D02*
X151831325Y-89064197D01*
X151831325Y-89064197D02*
X152140783Y-89052684D01*
X152140783Y-89052684D02*
X152451165Y-89048835D01*
X154070465Y-110148839D02*
X154051807Y-110395442D01*
X154051807Y-110395442D02*
X153997664Y-110630370D01*
X153997664Y-110630370D02*
X153910784Y-110850873D01*
X153910784Y-110850873D02*
X153793914Y-111054206D01*
X153793914Y-111054206D02*
X153649800Y-111237622D01*
X153649800Y-111237622D02*
X153481190Y-111398372D01*
X153481190Y-111398372D02*
X153290831Y-111533711D01*
X153290831Y-111533711D02*
X153081470Y-111640890D01*
X153081470Y-111640890D02*
X152855853Y-111717164D01*
X152855853Y-111717164D02*
X152616729Y-111759785D01*
X152616729Y-111759785D02*
X152451165Y-111768146D01*
X152451165Y-91329505D02*
X152697769Y-91348164D01*
X152697769Y-91348164D02*
X152932696Y-91402307D01*
X152932696Y-91402307D02*
X153153199Y-91489188D01*
X153153199Y-91489188D02*
X153356532Y-91606060D01*
X153356532Y-91606060D02*
X153539947Y-91750175D01*
X153539947Y-91750175D02*
X153700697Y-91918786D01*
X153700697Y-91918786D02*
X153836034Y-92109146D01*
X153836034Y-92109146D02*
X153943213Y-92318508D01*
X153943213Y-92318508D02*
X154019485Y-92544125D01*
X154019485Y-92544125D02*
X154062105Y-92783250D01*
X154062105Y-92783250D02*
X154070465Y-92948815D01*
X152451165Y-89048835D02*
X152761546Y-89052684D01*
X152761546Y-89052684D02*
X153071004Y-89064197D01*
X153071004Y-89064197D02*
X153379410Y-89083320D01*
X153379410Y-89083320D02*
X153686636Y-89110001D01*
X153686636Y-89110001D02*
X153992554Y-89144186D01*
X153992554Y-89144186D02*
X154297037Y-89185823D01*
X154297037Y-89185823D02*
X154599955Y-89234858D01*
X154599955Y-89234858D02*
X154901181Y-89291238D01*
X154901181Y-89291238D02*
X155200587Y-89354910D01*
X155200587Y-89354910D02*
X155498045Y-89425821D01*
X155498045Y-89425821D02*
X155793427Y-89503919D01*
X155793427Y-89503919D02*
X156086604Y-89589149D01*
X156086604Y-89589149D02*
X156377449Y-89681460D01*
X156377449Y-89681460D02*
X156665833Y-89780797D01*
X156665833Y-89780797D02*
X156951628Y-89887108D01*
X156951628Y-89887108D02*
X157234707Y-90000341D01*
X157234707Y-90000341D02*
X157514942Y-90120440D01*
X157514942Y-90120440D02*
X157792203Y-90247355D01*
X157792203Y-90247355D02*
X158066364Y-90381031D01*
X158066364Y-90381031D02*
X158337295Y-90521416D01*
X158337295Y-90521416D02*
X158604870Y-90668457D01*
X158604870Y-90668457D02*
X158868959Y-90822100D01*
X158868959Y-90822100D02*
X159129436Y-90982292D01*
X159129436Y-90982292D02*
X159386171Y-91148981D01*
X159386171Y-91148981D02*
X159639037Y-91322114D01*
X159639037Y-91322114D02*
X159887905Y-91501637D01*
X159887905Y-91501637D02*
X160132648Y-91687497D01*
X160132648Y-91687497D02*
X160373138Y-91879641D01*
X160373138Y-91879641D02*
X160609246Y-92078016D01*
X160609246Y-92078016D02*
X160840844Y-92282570D01*
X160840844Y-92282570D02*
X161067805Y-92493249D01*
X161067805Y-92493249D02*
X161290000Y-92710000D01*
X154070465Y-92948815D02*
X154051806Y-93195417D01*
X154051806Y-93195417D02*
X153997662Y-93430344D01*
X153997662Y-93430344D02*
X153910782Y-93650847D01*
X153910782Y-93650847D02*
X153793911Y-93854179D01*
X153793911Y-93854179D02*
X153649798Y-94037593D01*
X153649798Y-94037593D02*
X153481188Y-94198343D01*
X153481188Y-94198343D02*
X153290829Y-94333681D01*
X153290829Y-94333681D02*
X153081468Y-94440860D01*
X153081468Y-94440860D02*
X152855852Y-94517133D01*
X152855852Y-94517133D02*
X152616728Y-94559754D01*
X152616728Y-94559754D02*
X152451165Y-94568115D01*
X150831855Y-92948815D02*
X150844206Y-92749135D01*
X150844206Y-92749135D02*
X150890807Y-92515842D01*
X150890807Y-92515842D02*
X150970674Y-92292828D01*
X150970674Y-92292828D02*
X151082323Y-92083679D01*
X151082323Y-92083679D02*
X151224268Y-91891977D01*
X151224268Y-91891977D02*
X151306139Y-91803789D01*
X152451165Y-114048833D02*
X151807916Y-114032568D01*
X151807916Y-114032568D02*
X151173112Y-113984296D01*
X151173112Y-113984296D02*
X150547538Y-113904804D01*
X150547538Y-113904804D02*
X149931979Y-113794877D01*
X149931979Y-113794877D02*
X149327220Y-113655300D01*
X149327220Y-113655300D02*
X148734047Y-113486857D01*
X148734047Y-113486857D02*
X148153246Y-113290336D01*
X148153246Y-113290336D02*
X147585601Y-113066521D01*
X147585601Y-113066521D02*
X147031898Y-112816197D01*
X147031898Y-112816197D02*
X146492923Y-112540150D01*
X146492923Y-112540150D02*
X145969460Y-112239166D01*
X145969460Y-112239166D02*
X145462296Y-111914029D01*
X145462296Y-111914029D02*
X144972216Y-111565526D01*
X144972216Y-111565526D02*
X144500004Y-111194441D01*
X144500004Y-111194441D02*
X144046447Y-110801560D01*
X144046447Y-110801560D02*
X143612330Y-110387668D01*
X143612330Y-110387668D02*
X143198438Y-109953551D01*
X143198438Y-109953551D02*
X142805557Y-109499994D01*
X142805557Y-109499994D02*
X142434472Y-109027783D01*
X142434472Y-109027783D02*
X142085969Y-108537703D01*
X142085969Y-108537703D02*
X141760832Y-108030538D01*
X141760832Y-108030538D02*
X141459848Y-107507076D01*
X141459848Y-107507076D02*
X141183801Y-106968101D01*
X141183801Y-106968101D02*
X140933477Y-106414398D01*
X140933477Y-106414398D02*
X140709662Y-105846753D01*
X140709662Y-105846753D02*
X140513140Y-105265952D01*
X140513140Y-105265952D02*
X140344698Y-104672779D01*
X140344698Y-104672779D02*
X140205120Y-104068020D01*
X140205120Y-104068020D02*
X140095193Y-103452461D01*
X140095193Y-103452461D02*
X140015701Y-102826887D01*
X140015701Y-102826887D02*
X139967430Y-102192083D01*
X139967430Y-102192083D02*
X139951165Y-101548835D01*
X151306139Y-91803789D02*
X151456068Y-91671328D01*
X151456068Y-91671328D02*
X151653983Y-91539317D01*
X151653983Y-91539317D02*
X151868152Y-91438098D01*
X151868152Y-91438098D02*
X152094991Y-91369154D01*
X152094991Y-91369154D02*
X152330915Y-91333972D01*
X152330915Y-91333972D02*
X152451165Y-91329505D01*
X152451165Y-94568115D02*
X152204560Y-94549457D01*
X152204560Y-94549457D02*
X151969633Y-94495315D01*
X151969633Y-94495315D02*
X151749129Y-94408435D01*
X151749129Y-94408435D02*
X151545795Y-94291565D01*
X151545795Y-94291565D02*
X151362380Y-94147451D01*
X151362380Y-94147451D02*
X151201629Y-93978841D01*
X151201629Y-93978841D02*
X151066290Y-93788482D01*
X151066290Y-93788482D02*
X150959110Y-93579120D01*
X150959110Y-93579120D02*
X150882836Y-93353504D01*
X150882836Y-93353504D02*
X150840216Y-93114379D01*
X150840216Y-93114379D02*
X150831855Y-92948815D01*
X152451165Y-111768146D02*
X152251486Y-111755794D01*
X152251486Y-111755794D02*
X152018192Y-111709193D01*
X152018192Y-111709193D02*
X151795179Y-111629326D01*
X151795179Y-111629326D02*
X151586030Y-111517678D01*
X151586030Y-111517678D02*
X151394328Y-111375733D01*
X151394328Y-111375733D02*
X151306140Y-111293863D01*
X139951165Y-101548835D02*
X139955014Y-101238453D01*
X139955014Y-101238453D02*
X139966527Y-100928995D01*
X139966527Y-100928995D02*
X139985650Y-100620589D01*
X139985650Y-100620589D02*
X140012331Y-100313363D01*
X140012331Y-100313363D02*
X140046516Y-100007445D01*
X140046516Y-100007445D02*
X140088153Y-99702962D01*
X140088153Y-99702962D02*
X140137188Y-99400044D01*
X140137188Y-99400044D02*
X140193568Y-99098818D01*
X140193568Y-99098818D02*
X140257240Y-98799412D01*
X140257240Y-98799412D02*
X140328151Y-98501954D01*
X140328151Y-98501954D02*
X140406249Y-98206572D01*
X140406249Y-98206572D02*
X140491479Y-97913395D01*
X140491479Y-97913395D02*
X140583790Y-97622550D01*
X140583790Y-97622550D02*
X140683127Y-97334166D01*
X140683127Y-97334166D02*
X140789438Y-97048371D01*
X140789438Y-97048371D02*
X140902671Y-96765292D01*
X140902671Y-96765292D02*
X141022770Y-96485057D01*
X141022770Y-96485057D02*
X141149685Y-96207796D01*
X141149685Y-96207796D02*
X141283361Y-95933635D01*
X141283361Y-95933635D02*
X141423746Y-95662704D01*
X141423746Y-95662704D02*
X141570787Y-95395129D01*
X141570787Y-95395129D02*
X141724430Y-95131040D01*
X141724430Y-95131040D02*
X141884622Y-94870563D01*
X141884622Y-94870563D02*
X142051311Y-94613828D01*
X142051311Y-94613828D02*
X142224444Y-94360962D01*
X142224444Y-94360962D02*
X142403967Y-94112094D01*
X142403967Y-94112094D02*
X142589827Y-93867351D01*
X142589827Y-93867351D02*
X142781971Y-93626861D01*
X142781971Y-93626861D02*
X142980346Y-93390753D01*
X142980346Y-93390753D02*
X143184900Y-93159155D01*
X143184900Y-93159155D02*
X143395579Y-92932194D01*
X143395579Y-92932194D02*
X143612330Y-92710000D01*
X164951165Y-101548835D02*
X164934899Y-102192083D01*
X164934899Y-102192083D02*
X164886628Y-102826887D01*
X164886628Y-102826887D02*
X164807136Y-103452461D01*
X164807136Y-103452461D02*
X164697209Y-104068020D01*
X164697209Y-104068020D02*
X164557631Y-104672779D01*
X164557631Y-104672779D02*
X164389189Y-105265952D01*
X164389189Y-105265952D02*
X164192667Y-105846753D01*
X164192667Y-105846753D02*
X163968852Y-106414398D01*
X163968852Y-106414398D02*
X163718528Y-106968101D01*
X163718528Y-106968101D02*
X163442481Y-107507076D01*
X163442481Y-107507076D02*
X163141497Y-108030538D01*
X163141497Y-108030538D02*
X162816360Y-108537703D01*
X162816360Y-108537703D02*
X162467857Y-109027783D01*
X162467857Y-109027783D02*
X162096772Y-109499994D01*
X162096772Y-109499994D02*
X161703891Y-109953551D01*
X161703891Y-109953551D02*
X161289999Y-110387668D01*
X161289999Y-110387668D02*
X160855882Y-110801560D01*
X160855882Y-110801560D02*
X160402325Y-111194441D01*
X160402325Y-111194441D02*
X159930113Y-111565526D01*
X159930113Y-111565526D02*
X159440033Y-111914029D01*
X159440033Y-111914029D02*
X158932869Y-112239166D01*
X158932869Y-112239166D02*
X158409406Y-112540150D01*
X158409406Y-112540150D02*
X157870431Y-112816197D01*
X157870431Y-112816197D02*
X157316728Y-113066521D01*
X157316728Y-113066521D02*
X156749083Y-113290336D01*
X156749083Y-113290336D02*
X156168282Y-113486857D01*
X156168282Y-113486857D02*
X155575109Y-113655300D01*
X155575109Y-113655300D02*
X154970350Y-113794877D01*
X154970350Y-113794877D02*
X154354791Y-113904804D01*
X154354791Y-113904804D02*
X153729217Y-113984296D01*
X153729217Y-113984296D02*
X153094413Y-114032568D01*
X153094413Y-114032568D02*
X152451165Y-114048833D01*
X161290000Y-92710000D02*
X161506750Y-92932194D01*
X161506750Y-92932194D02*
X161717429Y-93159155D01*
X161717429Y-93159155D02*
X161921983Y-93390753D01*
X161921983Y-93390753D02*
X162120358Y-93626861D01*
X162120358Y-93626861D02*
X162312502Y-93867351D01*
X162312502Y-93867351D02*
X162498362Y-94112094D01*
X162498362Y-94112094D02*
X162677885Y-94360962D01*
X162677885Y-94360962D02*
X162851018Y-94613828D01*
X162851018Y-94613828D02*
X163017707Y-94870563D01*
X163017707Y-94870563D02*
X163177899Y-95131040D01*
X163177899Y-95131040D02*
X163331542Y-95395129D01*
X163331542Y-95395129D02*
X163478583Y-95662704D01*
X163478583Y-95662704D02*
X163618968Y-95933635D01*
X163618968Y-95933635D02*
X163752644Y-96207796D01*
X163752644Y-96207796D02*
X163879559Y-96485057D01*
X163879559Y-96485057D02*
X163999659Y-96765292D01*
X163999659Y-96765292D02*
X164112891Y-97048371D01*
X164112891Y-97048371D02*
X164219202Y-97334166D01*
X164219202Y-97334166D02*
X164318539Y-97622550D01*
X164318539Y-97622550D02*
X164410850Y-97913395D01*
X164410850Y-97913395D02*
X164496080Y-98206572D01*
X164496080Y-98206572D02*
X164574178Y-98501954D01*
X164574178Y-98501954D02*
X164645089Y-98799412D01*
X164645089Y-98799412D02*
X164708761Y-99098818D01*
X164708761Y-99098818D02*
X164765141Y-99400044D01*
X164765141Y-99400044D02*
X164814176Y-99702962D01*
X164814176Y-99702962D02*
X164855813Y-100007445D01*
X164855813Y-100007445D02*
X164889998Y-100313363D01*
X164889998Y-100313363D02*
X164916679Y-100620589D01*
X164916679Y-100620589D02*
X164935802Y-100928995D01*
X164935802Y-100928995D02*
X164947315Y-101238453D01*
X164947315Y-101238453D02*
X164951165Y-101548835D01*
M02*
