%TF.GenerationSoftware,KiCad,Pcbnew,(5.1.6)-1*%
%TF.CreationDate,2020-09-29T17:07:27-07:00*%
%TF.ProjectId,TSSOP16 Breakout,5453534f-5031-4362-9042-7265616b6f75,rev?*%
%TF.SameCoordinates,Original*%
%TF.FileFunction,Copper,L1,Top*%
%TF.FilePolarity,Positive*%
%FSLAX46Y46*%
G04 Gerber Fmt 4.6, Leading zero omitted, Abs format (unit mm)*
G04 Created by KiCad (PCBNEW (5.1.6)-1) date 2020-09-29 17:07:27*
%MOMM*%
%LPD*%
G01*
G04 APERTURE LIST*
%TA.AperFunction,ComponentPad*%
%ADD10R,1.350000X1.350000*%
%TD*%
%TA.AperFunction,ComponentPad*%
%ADD11O,1.350000X1.350000*%
%TD*%
%TA.AperFunction,Conductor*%
%ADD12C,0.381000*%
%TD*%
%TA.AperFunction,Conductor*%
%ADD13C,0.508000*%
%TD*%
G04 APERTURE END LIST*
%TO.P,C1,1*%
%TO.N,Net-(C1-Pad1)*%
%TA.AperFunction,SMDPad,CuDef*%
G36*
G01*
X156550000Y-102225000D02*
X156550000Y-100975000D01*
G75*
G02*
X156800000Y-100725000I250000J0D01*
G01*
X157725000Y-100725000D01*
G75*
G02*
X157975000Y-100975000I0J-250000D01*
G01*
X157975000Y-102225000D01*
G75*
G02*
X157725000Y-102475000I-250000J0D01*
G01*
X156800000Y-102475000D01*
G75*
G02*
X156550000Y-102225000I0J250000D01*
G01*
G37*
%TD.AperFunction*%
%TO.P,C1,2*%
%TO.N,Net-(C1-Pad2)*%
%TA.AperFunction,SMDPad,CuDef*%
G36*
G01*
X159525000Y-102225000D02*
X159525000Y-100975000D01*
G75*
G02*
X159775000Y-100725000I250000J0D01*
G01*
X160700000Y-100725000D01*
G75*
G02*
X160950000Y-100975000I0J-250000D01*
G01*
X160950000Y-102225000D01*
G75*
G02*
X160700000Y-102475000I-250000J0D01*
G01*
X159775000Y-102475000D01*
G75*
G02*
X159525000Y-102225000I0J250000D01*
G01*
G37*
%TD.AperFunction*%
%TD*%
%TO.P,C2,2*%
%TO.N,Net-(C1-Pad2)*%
%TA.AperFunction,SMDPad,CuDef*%
G36*
G01*
X158105000Y-94257500D02*
X156855000Y-94257500D01*
G75*
G02*
X156605000Y-94007500I0J250000D01*
G01*
X156605000Y-93082500D01*
G75*
G02*
X156855000Y-92832500I250000J0D01*
G01*
X158105000Y-92832500D01*
G75*
G02*
X158355000Y-93082500I0J-250000D01*
G01*
X158355000Y-94007500D01*
G75*
G02*
X158105000Y-94257500I-250000J0D01*
G01*
G37*
%TD.AperFunction*%
%TO.P,C2,1*%
%TO.N,Net-(C2-Pad1)*%
%TA.AperFunction,SMDPad,CuDef*%
G36*
G01*
X158105000Y-97232500D02*
X156855000Y-97232500D01*
G75*
G02*
X156605000Y-96982500I0J250000D01*
G01*
X156605000Y-96057500D01*
G75*
G02*
X156855000Y-95807500I250000J0D01*
G01*
X158105000Y-95807500D01*
G75*
G02*
X158355000Y-96057500I0J-250000D01*
G01*
X158355000Y-96982500D01*
G75*
G02*
X158105000Y-97232500I-250000J0D01*
G01*
G37*
%TD.AperFunction*%
%TD*%
D10*
%TO.P,J1,1*%
%TO.N,Net-(C1-Pad1)*%
X144780000Y-98870000D03*
D11*
%TO.P,J1,2*%
%TO.N,Net-(J1-Pad2)*%
X144780000Y-100870000D03*
%TO.P,J1,3*%
%TO.N,Net-(J1-Pad3)*%
X144780000Y-102870000D03*
%TO.P,J1,4*%
%TO.N,Net-(C1-Pad2)*%
X144780000Y-104870000D03*
%TD*%
%TO.P,U1,1*%
%TO.N,Net-(J1-Pad3)*%
%TA.AperFunction,SMDPad,CuDef*%
G36*
G01*
X150550000Y-105435001D02*
X150350000Y-105435001D01*
G75*
G02*
X150250000Y-105335001I0J100000D01*
G01*
X150250000Y-104060001D01*
G75*
G02*
X150350000Y-103960001I100000J0D01*
G01*
X150550000Y-103960001D01*
G75*
G02*
X150650000Y-104060001I0J-100000D01*
G01*
X150650000Y-105335001D01*
G75*
G02*
X150550000Y-105435001I-100000J0D01*
G01*
G37*
%TD.AperFunction*%
%TO.P,U1,2*%
%TO.N,Net-(J1-Pad2)*%
%TA.AperFunction,SMDPad,CuDef*%
G36*
G01*
X151200000Y-105435001D02*
X151000000Y-105435001D01*
G75*
G02*
X150900000Y-105335001I0J100000D01*
G01*
X150900000Y-104060001D01*
G75*
G02*
X151000000Y-103960001I100000J0D01*
G01*
X151200000Y-103960001D01*
G75*
G02*
X151300000Y-104060001I0J-100000D01*
G01*
X151300000Y-105335001D01*
G75*
G02*
X151200000Y-105435001I-100000J0D01*
G01*
G37*
%TD.AperFunction*%
%TO.P,U1,3*%
%TO.N,Net-(U1-Pad3)*%
%TA.AperFunction,SMDPad,CuDef*%
G36*
G01*
X151850000Y-105435001D02*
X151650000Y-105435001D01*
G75*
G02*
X151550000Y-105335001I0J100000D01*
G01*
X151550000Y-104060001D01*
G75*
G02*
X151650000Y-103960001I100000J0D01*
G01*
X151850000Y-103960001D01*
G75*
G02*
X151950000Y-104060001I0J-100000D01*
G01*
X151950000Y-105335001D01*
G75*
G02*
X151850000Y-105435001I-100000J0D01*
G01*
G37*
%TD.AperFunction*%
%TO.P,U1,4*%
%TO.N,Net-(U1-Pad4)*%
%TA.AperFunction,SMDPad,CuDef*%
G36*
G01*
X152500000Y-105435001D02*
X152300000Y-105435001D01*
G75*
G02*
X152200000Y-105335001I0J100000D01*
G01*
X152200000Y-104060001D01*
G75*
G02*
X152300000Y-103960001I100000J0D01*
G01*
X152500000Y-103960001D01*
G75*
G02*
X152600000Y-104060001I0J-100000D01*
G01*
X152600000Y-105335001D01*
G75*
G02*
X152500000Y-105435001I-100000J0D01*
G01*
G37*
%TD.AperFunction*%
%TO.P,U1,5*%
%TO.N,Net-(U1-Pad5)*%
%TA.AperFunction,SMDPad,CuDef*%
G36*
G01*
X153150000Y-105435001D02*
X152950000Y-105435001D01*
G75*
G02*
X152850000Y-105335001I0J100000D01*
G01*
X152850000Y-104060001D01*
G75*
G02*
X152950000Y-103960001I100000J0D01*
G01*
X153150000Y-103960001D01*
G75*
G02*
X153250000Y-104060001I0J-100000D01*
G01*
X153250000Y-105335001D01*
G75*
G02*
X153150000Y-105435001I-100000J0D01*
G01*
G37*
%TD.AperFunction*%
%TO.P,U1,6*%
%TO.N,Net-(U1-Pad6)*%
%TA.AperFunction,SMDPad,CuDef*%
G36*
G01*
X153800000Y-105435001D02*
X153600000Y-105435001D01*
G75*
G02*
X153500000Y-105335001I0J100000D01*
G01*
X153500000Y-104060001D01*
G75*
G02*
X153600000Y-103960001I100000J0D01*
G01*
X153800000Y-103960001D01*
G75*
G02*
X153900000Y-104060001I0J-100000D01*
G01*
X153900000Y-105335001D01*
G75*
G02*
X153800000Y-105435001I-100000J0D01*
G01*
G37*
%TD.AperFunction*%
%TO.P,U1,7*%
%TO.N,Net-(U1-Pad7)*%
%TA.AperFunction,SMDPad,CuDef*%
G36*
G01*
X154450000Y-105435001D02*
X154250000Y-105435001D01*
G75*
G02*
X154150000Y-105335001I0J100000D01*
G01*
X154150000Y-104060001D01*
G75*
G02*
X154250000Y-103960001I100000J0D01*
G01*
X154450000Y-103960001D01*
G75*
G02*
X154550000Y-104060001I0J-100000D01*
G01*
X154550000Y-105335001D01*
G75*
G02*
X154450000Y-105435001I-100000J0D01*
G01*
G37*
%TD.AperFunction*%
%TO.P,U1,8*%
%TO.N,Net-(U1-Pad8)*%
%TA.AperFunction,SMDPad,CuDef*%
G36*
G01*
X154450000Y-99710001D02*
X154250000Y-99710001D01*
G75*
G02*
X154150000Y-99610001I0J100000D01*
G01*
X154150000Y-98335001D01*
G75*
G02*
X154250000Y-98235001I100000J0D01*
G01*
X154450000Y-98235001D01*
G75*
G02*
X154550000Y-98335001I0J-100000D01*
G01*
X154550000Y-99610001D01*
G75*
G02*
X154450000Y-99710001I-100000J0D01*
G01*
G37*
%TD.AperFunction*%
%TO.P,U1,9*%
%TO.N,Net-(U1-Pad9)*%
%TA.AperFunction,SMDPad,CuDef*%
G36*
G01*
X153800000Y-99710001D02*
X153600000Y-99710001D01*
G75*
G02*
X153500000Y-99610001I0J100000D01*
G01*
X153500000Y-98335001D01*
G75*
G02*
X153600000Y-98235001I100000J0D01*
G01*
X153800000Y-98235001D01*
G75*
G02*
X153900000Y-98335001I0J-100000D01*
G01*
X153900000Y-99610001D01*
G75*
G02*
X153800000Y-99710001I-100000J0D01*
G01*
G37*
%TD.AperFunction*%
%TO.P,U1,10*%
%TO.N,Net-(U1-Pad10)*%
%TA.AperFunction,SMDPad,CuDef*%
G36*
G01*
X153150000Y-99710001D02*
X152950000Y-99710001D01*
G75*
G02*
X152850000Y-99610001I0J100000D01*
G01*
X152850000Y-98335001D01*
G75*
G02*
X152950000Y-98235001I100000J0D01*
G01*
X153150000Y-98235001D01*
G75*
G02*
X153250000Y-98335001I0J-100000D01*
G01*
X153250000Y-99610001D01*
G75*
G02*
X153150000Y-99710001I-100000J0D01*
G01*
G37*
%TD.AperFunction*%
%TO.P,U1,11*%
%TO.N,Net-(C1-Pad1)*%
%TA.AperFunction,SMDPad,CuDef*%
G36*
G01*
X152500000Y-99710001D02*
X152300000Y-99710001D01*
G75*
G02*
X152200000Y-99610001I0J100000D01*
G01*
X152200000Y-98335001D01*
G75*
G02*
X152300000Y-98235001I100000J0D01*
G01*
X152500000Y-98235001D01*
G75*
G02*
X152600000Y-98335001I0J-100000D01*
G01*
X152600000Y-99610001D01*
G75*
G02*
X152500000Y-99710001I-100000J0D01*
G01*
G37*
%TD.AperFunction*%
%TO.P,U1,12*%
%TO.N,Net-(C2-Pad1)*%
%TA.AperFunction,SMDPad,CuDef*%
G36*
G01*
X151850000Y-99710001D02*
X151650000Y-99710001D01*
G75*
G02*
X151550000Y-99610001I0J100000D01*
G01*
X151550000Y-98335001D01*
G75*
G02*
X151650000Y-98235001I100000J0D01*
G01*
X151850000Y-98235001D01*
G75*
G02*
X151950000Y-98335001I0J-100000D01*
G01*
X151950000Y-99610001D01*
G75*
G02*
X151850000Y-99710001I-100000J0D01*
G01*
G37*
%TD.AperFunction*%
%TO.P,U1,13*%
%TO.N,Net-(C1-Pad2)*%
%TA.AperFunction,SMDPad,CuDef*%
G36*
G01*
X151200000Y-99710001D02*
X151000000Y-99710001D01*
G75*
G02*
X150900000Y-99610001I0J100000D01*
G01*
X150900000Y-98335001D01*
G75*
G02*
X151000000Y-98235001I100000J0D01*
G01*
X151200000Y-98235001D01*
G75*
G02*
X151300000Y-98335001I0J-100000D01*
G01*
X151300000Y-99610001D01*
G75*
G02*
X151200000Y-99710001I-100000J0D01*
G01*
G37*
%TD.AperFunction*%
%TO.P,U1,14*%
%TO.N,Net-(U1-Pad14)*%
%TA.AperFunction,SMDPad,CuDef*%
G36*
G01*
X150550000Y-99710001D02*
X150350000Y-99710001D01*
G75*
G02*
X150250000Y-99610001I0J100000D01*
G01*
X150250000Y-98335001D01*
G75*
G02*
X150350000Y-98235001I100000J0D01*
G01*
X150550000Y-98235001D01*
G75*
G02*
X150650000Y-98335001I0J-100000D01*
G01*
X150650000Y-99610001D01*
G75*
G02*
X150550000Y-99710001I-100000J0D01*
G01*
G37*
%TD.AperFunction*%
%TD*%
D12*
%TO.N,Net-(C1-Pad1)*%
X152400000Y-98972501D02*
X152400000Y-99753689D01*
D13*
X147130000Y-98870000D02*
X148590000Y-100330000D01*
X144780000Y-98870000D02*
X147130000Y-98870000D01*
X152400000Y-99753689D02*
X152400000Y-100965000D01*
X152400000Y-100965000D02*
X149860000Y-100965000D01*
X149225000Y-100330000D02*
X148590000Y-100330000D01*
X149860000Y-100965000D02*
X149225000Y-100330000D01*
X156627500Y-100965000D02*
X157262500Y-101600000D01*
X152400000Y-100965000D02*
X156627500Y-100965000D01*
D12*
%TO.N,Net-(C1-Pad2)*%
X151130000Y-96520000D02*
X151130000Y-99060000D01*
D13*
X142970000Y-104870000D02*
X142240000Y-104140000D01*
X144780000Y-104870000D02*
X142970000Y-104870000D01*
X142240000Y-104140000D02*
X142240000Y-96520000D01*
X142240000Y-96520000D02*
X151130000Y-96520000D01*
X155775000Y-95250000D02*
X157480000Y-93545000D01*
X151130000Y-96520000D02*
X152400000Y-95250000D01*
X152400000Y-95250000D02*
X155775000Y-95250000D01*
X157480000Y-93545000D02*
X160237500Y-96302500D01*
X160237500Y-96302500D02*
X160237500Y-101600000D01*
D12*
%TO.N,Net-(C2-Pad1)*%
X151750000Y-98972501D02*
X151750000Y-98191313D01*
D13*
X152840303Y-97101011D02*
X152275657Y-97665657D01*
X153421313Y-96520000D02*
X152840303Y-97101011D01*
X157480000Y-96520000D02*
X153421313Y-96520000D01*
D12*
X151750000Y-98191313D02*
X152275657Y-97665657D01*
%TO.N,Net-(J1-Pad2)*%
X151100000Y-103916313D02*
X148728686Y-101544999D01*
X151100000Y-104697501D02*
X151100000Y-103916313D01*
D13*
X144780000Y-100870000D02*
X145454999Y-101544999D01*
X145454999Y-101544999D02*
X146105001Y-101544999D01*
X146105001Y-101544999D02*
X148728686Y-101544999D01*
X148728686Y-101544999D02*
X148818488Y-101544999D01*
X148818488Y-101544999D02*
X151100000Y-103826511D01*
%TO.N,Net-(J1-Pad3)*%
X144780000Y-102870000D02*
X146685000Y-102870000D01*
X148512501Y-104697501D02*
X150445990Y-104697501D01*
X146685000Y-102870000D02*
X148512501Y-104697501D01*
%TD*%
M02*
