%TF.GenerationSoftware,KiCad,Pcbnew,(5.1.6)-1*%
%TF.CreationDate,2020-09-29T17:07:27-07:00*%
%TF.ProjectId,TSSOP16 Breakout,5453534f-5031-4362-9042-7265616b6f75,rev?*%
%TF.SameCoordinates,Original*%
%TF.FileFunction,Copper,L2,Bot*%
%TF.FilePolarity,Positive*%
%FSLAX46Y46*%
G04 Gerber Fmt 4.6, Leading zero omitted, Abs format (unit mm)*
G04 Created by KiCad (PCBNEW (5.1.6)-1) date 2020-09-29 17:07:27*
%MOMM*%
%LPD*%
G01*
G04 APERTURE LIST*
%TA.AperFunction,ComponentPad*%
%ADD10R,1.350000X1.350000*%
%TD*%
%TA.AperFunction,ComponentPad*%
%ADD11O,1.350000X1.350000*%
%TD*%
%TA.AperFunction,NonConductor*%
%ADD12C,0.254000*%
%TD*%
G04 APERTURE END LIST*
D10*
%TO.P,J1,1*%
%TO.N,Net-(C1-Pad1)*%
X144780000Y-98870000D03*
D11*
%TO.P,J1,2*%
%TO.N,Net-(J1-Pad2)*%
X144780000Y-100870000D03*
%TO.P,J1,3*%
%TO.N,Net-(J1-Pad3)*%
X144780000Y-102870000D03*
%TO.P,J1,4*%
%TO.N,Net-(C1-Pad2)*%
X144780000Y-104870000D03*
%TD*%
D12*
G36*
X152743298Y-89787514D02*
G01*
X153034603Y-89798351D01*
X153324852Y-89816349D01*
X153614004Y-89841460D01*
X153901947Y-89873636D01*
X154188525Y-89912825D01*
X154473603Y-89958972D01*
X154757100Y-90012034D01*
X155038898Y-90071961D01*
X155318846Y-90138698D01*
X155596880Y-90212209D01*
X155872808Y-90292425D01*
X156146549Y-90379307D01*
X156417992Y-90472809D01*
X156686993Y-90572873D01*
X156953412Y-90679442D01*
X157217175Y-90792482D01*
X157478133Y-90911934D01*
X157736164Y-91037745D01*
X157991174Y-91169880D01*
X158243032Y-91308284D01*
X158491559Y-91452874D01*
X158736731Y-91603652D01*
X158978373Y-91760542D01*
X159216350Y-91923481D01*
X159450560Y-92092430D01*
X159680935Y-92267378D01*
X159907275Y-92448217D01*
X160129496Y-92634924D01*
X160347441Y-92827420D01*
X160561081Y-93025732D01*
X160770237Y-93229763D01*
X160974247Y-93438898D01*
X161172561Y-93652538D01*
X161365094Y-93870526D01*
X161551786Y-94092729D01*
X161732621Y-94319064D01*
X161907550Y-94549413D01*
X162076524Y-94783658D01*
X162239457Y-95021626D01*
X162396324Y-95263233D01*
X162547126Y-95508440D01*
X162691715Y-95756967D01*
X162830101Y-96008792D01*
X162962254Y-96263835D01*
X163088072Y-96521882D01*
X163207520Y-96782830D01*
X163320553Y-97046575D01*
X163427128Y-97313012D01*
X163527194Y-97582019D01*
X163620691Y-97853449D01*
X163707574Y-98127192D01*
X163787787Y-98403109D01*
X163861303Y-98681162D01*
X163928038Y-98961101D01*
X163987965Y-99242899D01*
X164041027Y-99526396D01*
X164087174Y-99811474D01*
X164126363Y-100098052D01*
X164158539Y-100385995D01*
X164183650Y-100675144D01*
X164201648Y-100965396D01*
X164212485Y-101256701D01*
X164216050Y-101544092D01*
X164200604Y-102154906D01*
X164155152Y-102752645D01*
X164080330Y-103341465D01*
X163976895Y-103920671D01*
X163845577Y-104489640D01*
X163687123Y-105047641D01*
X163502253Y-105594006D01*
X163291691Y-106128036D01*
X163056179Y-106648978D01*
X162796423Y-107156147D01*
X162513160Y-107648788D01*
X162207123Y-108126161D01*
X161879068Y-108587485D01*
X161529721Y-109032033D01*
X161159822Y-109459060D01*
X160770117Y-109867807D01*
X160361391Y-110257490D01*
X159934355Y-110627398D01*
X159489803Y-110976746D01*
X159028476Y-111304802D01*
X158551134Y-111610821D01*
X158058476Y-111894092D01*
X157551324Y-112153840D01*
X157030373Y-112389357D01*
X156496348Y-112599917D01*
X155949964Y-112784792D01*
X155391961Y-112943248D01*
X154823006Y-113074562D01*
X154243791Y-113177998D01*
X153654974Y-113252820D01*
X153057234Y-113298273D01*
X152451165Y-113313598D01*
X151845096Y-113298273D01*
X151247353Y-113252820D01*
X150658534Y-113177998D01*
X150079323Y-113074562D01*
X149510368Y-112943248D01*
X148952365Y-112784792D01*
X148405981Y-112599917D01*
X147871963Y-112389360D01*
X147351021Y-112153848D01*
X146843843Y-111894087D01*
X146351210Y-111610829D01*
X145873852Y-111304802D01*
X145412527Y-110976746D01*
X144967961Y-110627387D01*
X144540938Y-110257491D01*
X144444836Y-110165866D01*
X150097053Y-110165866D01*
X150097362Y-110176124D01*
X150101829Y-110296373D01*
X150106624Y-110331709D01*
X150107919Y-110367339D01*
X150109361Y-110377499D01*
X150144544Y-110613422D01*
X150156442Y-110660854D01*
X150165353Y-110708906D01*
X150168268Y-110718745D01*
X150237211Y-110945585D01*
X150255844Y-110990557D01*
X150271607Y-111036607D01*
X150275927Y-111045916D01*
X150377147Y-111260084D01*
X150402202Y-111301954D01*
X150424572Y-111345289D01*
X150430207Y-111353866D01*
X150562218Y-111551782D01*
X150590488Y-111586317D01*
X150616119Y-111622840D01*
X150622859Y-111630578D01*
X150755321Y-111780508D01*
X150778209Y-111801806D01*
X150798599Y-111825489D01*
X150806070Y-111832524D01*
X150894258Y-111914394D01*
X150922639Y-111935993D01*
X150948744Y-111960266D01*
X150956948Y-111966431D01*
X151148650Y-112108376D01*
X151190597Y-112133498D01*
X151230883Y-112161180D01*
X151239902Y-112166076D01*
X151449050Y-112277724D01*
X151494025Y-112296348D01*
X151537731Y-112317763D01*
X151547368Y-112321290D01*
X151770381Y-112401157D01*
X151817701Y-112413046D01*
X151864169Y-112427873D01*
X151874218Y-112429954D01*
X152107513Y-112476555D01*
X152151923Y-112480985D01*
X152195868Y-112488686D01*
X152206106Y-112489392D01*
X152405785Y-112501744D01*
X152441915Y-112500444D01*
X152477983Y-112502656D01*
X152488235Y-112502211D01*
X152653799Y-112493850D01*
X152694516Y-112487771D01*
X152735586Y-112485111D01*
X152745701Y-112483381D01*
X152984826Y-112440760D01*
X153032808Y-112427267D01*
X153081501Y-112416669D01*
X153091246Y-112413451D01*
X153316862Y-112337177D01*
X153361476Y-112317053D01*
X153407236Y-112299753D01*
X153416403Y-112295141D01*
X153625765Y-112187962D01*
X153666256Y-112161957D01*
X153708318Y-112138631D01*
X153716724Y-112132744D01*
X153907083Y-111997405D01*
X153943005Y-111966165D01*
X153980889Y-111937376D01*
X153988366Y-111930347D01*
X154156976Y-111769597D01*
X154188011Y-111733601D01*
X154221345Y-111699748D01*
X154227742Y-111691724D01*
X154371856Y-111508308D01*
X154397636Y-111467931D01*
X154425977Y-111429334D01*
X154431153Y-111420473D01*
X154548023Y-111217140D01*
X154568031Y-111172803D01*
X154590789Y-111129831D01*
X154594618Y-111120309D01*
X154681498Y-110899807D01*
X154695079Y-110852145D01*
X154711514Y-110805419D01*
X154713889Y-110795436D01*
X154768032Y-110560508D01*
X154774498Y-110510573D01*
X154783866Y-110461121D01*
X154784712Y-110450894D01*
X154803370Y-110204290D01*
X154802455Y-110163115D01*
X154804975Y-110122021D01*
X154804530Y-110111769D01*
X154796169Y-109946204D01*
X154790091Y-109905491D01*
X154787431Y-109864423D01*
X154785701Y-109854307D01*
X154743082Y-109615184D01*
X154729588Y-109567196D01*
X154718991Y-109518505D01*
X154715773Y-109508760D01*
X154639500Y-109283143D01*
X154619376Y-109238529D01*
X154602076Y-109192769D01*
X154597464Y-109183601D01*
X154490285Y-108974239D01*
X154464285Y-108933755D01*
X154440957Y-108891689D01*
X154435070Y-108883284D01*
X154299733Y-108692924D01*
X154268493Y-108657001D01*
X154239700Y-108619112D01*
X154232671Y-108611635D01*
X154071921Y-108443025D01*
X154035930Y-108411994D01*
X154002076Y-108378659D01*
X153994051Y-108372262D01*
X153810636Y-108228147D01*
X153770261Y-108202368D01*
X153731663Y-108174026D01*
X153722802Y-108168849D01*
X153519470Y-108051978D01*
X153475132Y-108031969D01*
X153432158Y-108009210D01*
X153422637Y-108005382D01*
X153202133Y-107918501D01*
X153154479Y-107904922D01*
X153107745Y-107888484D01*
X153097761Y-107886109D01*
X152862834Y-107831966D01*
X152812902Y-107825500D01*
X152763450Y-107816132D01*
X152753223Y-107815286D01*
X152506620Y-107796627D01*
X152470326Y-107797434D01*
X152434138Y-107794730D01*
X152423880Y-107795039D01*
X152303630Y-107799506D01*
X152268301Y-107804300D01*
X152232668Y-107805595D01*
X152222508Y-107807038D01*
X151986583Y-107842220D01*
X151939155Y-107854117D01*
X151891096Y-107863029D01*
X151881256Y-107865944D01*
X151654418Y-107934887D01*
X151609441Y-107953522D01*
X151563398Y-107969283D01*
X151554089Y-107973603D01*
X151339920Y-108074823D01*
X151298056Y-108099874D01*
X151254712Y-108122249D01*
X151246135Y-108127883D01*
X151048220Y-108259895D01*
X151013693Y-108288159D01*
X150977165Y-108313793D01*
X150969427Y-108320534D01*
X150819498Y-108452994D01*
X150798206Y-108475874D01*
X150774520Y-108496267D01*
X150767485Y-108503739D01*
X150685614Y-108591926D01*
X150664014Y-108620308D01*
X150639736Y-108646418D01*
X150633571Y-108654622D01*
X150491626Y-108846324D01*
X150466507Y-108888265D01*
X150438823Y-108928554D01*
X150433927Y-108937573D01*
X150322278Y-109146722D01*
X150303652Y-109191701D01*
X150282238Y-109235405D01*
X150278711Y-109245042D01*
X150198844Y-109468055D01*
X150186955Y-109515375D01*
X150172128Y-109561843D01*
X150170047Y-109571892D01*
X150123446Y-109805186D01*
X150119016Y-109849598D01*
X150111315Y-109893542D01*
X150110609Y-109903780D01*
X150098257Y-110103459D01*
X150099381Y-110134705D01*
X150097053Y-110165866D01*
X144444836Y-110165866D01*
X144132191Y-109867786D01*
X143742508Y-109459060D01*
X143372608Y-109032034D01*
X143023253Y-108587475D01*
X142695206Y-108126161D01*
X142663690Y-108077000D01*
X147320000Y-108077000D01*
X147344776Y-108074560D01*
X147368601Y-108067333D01*
X147390557Y-108055597D01*
X147409803Y-108039803D01*
X147425597Y-108020557D01*
X147437333Y-107998601D01*
X147444560Y-107974776D01*
X147447000Y-107950000D01*
X147447000Y-95885000D01*
X147444560Y-95860224D01*
X147437333Y-95836399D01*
X147425597Y-95814443D01*
X147409803Y-95795197D01*
X147390557Y-95779403D01*
X147368601Y-95767667D01*
X147344776Y-95760440D01*
X147320000Y-95758000D01*
X142240000Y-95758000D01*
X142215224Y-95760440D01*
X142207402Y-95762813D01*
X142210614Y-95756967D01*
X142355204Y-95508440D01*
X142505982Y-95263268D01*
X142662872Y-95021626D01*
X142825811Y-94783649D01*
X142994760Y-94549439D01*
X143169708Y-94319064D01*
X143350547Y-94092724D01*
X143537254Y-93870503D01*
X143729750Y-93652558D01*
X143928062Y-93438918D01*
X144132093Y-93229763D01*
X144341228Y-93025752D01*
X144395220Y-92975633D01*
X150097345Y-92975633D01*
X150097790Y-92985885D01*
X150106151Y-93151449D01*
X150112230Y-93192169D01*
X150114890Y-93233232D01*
X150116619Y-93243348D01*
X150159239Y-93482472D01*
X150172733Y-93530458D01*
X150183331Y-93579153D01*
X150186550Y-93588898D01*
X150262823Y-93814513D01*
X150282945Y-93859123D01*
X150300247Y-93904887D01*
X150304859Y-93914055D01*
X150412039Y-94123417D01*
X150438046Y-94163912D01*
X150461370Y-94205969D01*
X150467257Y-94214375D01*
X150602596Y-94404734D01*
X150633837Y-94440658D01*
X150662627Y-94478542D01*
X150669656Y-94486019D01*
X150830407Y-94654629D01*
X150866396Y-94685657D01*
X150900252Y-94718995D01*
X150908277Y-94725392D01*
X151091692Y-94869505D01*
X151132058Y-94895279D01*
X151170668Y-94923629D01*
X151179530Y-94928805D01*
X151382864Y-95045675D01*
X151427198Y-95065682D01*
X151470173Y-95088441D01*
X151479694Y-95092270D01*
X151700197Y-95179149D01*
X151747847Y-95192727D01*
X151794586Y-95209166D01*
X151804569Y-95211541D01*
X152039496Y-95265683D01*
X152089435Y-95272149D01*
X152138881Y-95281516D01*
X152149109Y-95282362D01*
X152395714Y-95301020D01*
X152436888Y-95300105D01*
X152477983Y-95302625D01*
X152488236Y-95302180D01*
X152653799Y-95293819D01*
X152694516Y-95287740D01*
X152735585Y-95285080D01*
X152745700Y-95283350D01*
X152984825Y-95240729D01*
X153032804Y-95227237D01*
X153081498Y-95216639D01*
X153091243Y-95213420D01*
X153316859Y-95137147D01*
X153361473Y-95117023D01*
X153407234Y-95099723D01*
X153416401Y-95095111D01*
X153625763Y-94987932D01*
X153666250Y-94961930D01*
X153708314Y-94938603D01*
X153716720Y-94932715D01*
X153907079Y-94797377D01*
X153942999Y-94766139D01*
X153980887Y-94737347D01*
X153988364Y-94730318D01*
X154156974Y-94569568D01*
X154188010Y-94533571D01*
X154221342Y-94499720D01*
X154227739Y-94491696D01*
X154371852Y-94308282D01*
X154397629Y-94267910D01*
X154425972Y-94229311D01*
X154431148Y-94220450D01*
X154548019Y-94017117D01*
X154568028Y-93972779D01*
X154590787Y-93929805D01*
X154594616Y-93920283D01*
X154681496Y-93699781D01*
X154695076Y-93652124D01*
X154711511Y-93605397D01*
X154713886Y-93595413D01*
X154768030Y-93360486D01*
X154774496Y-93310556D01*
X154783865Y-93261099D01*
X154784711Y-93250872D01*
X154803370Y-93004270D01*
X154802455Y-92963096D01*
X154804975Y-92922002D01*
X154804530Y-92911749D01*
X154796170Y-92746184D01*
X154790091Y-92705465D01*
X154787431Y-92664396D01*
X154785702Y-92654281D01*
X154743082Y-92415156D01*
X154729587Y-92367163D01*
X154718992Y-92318483D01*
X154715774Y-92308738D01*
X154639502Y-92083121D01*
X154619377Y-92038504D01*
X154602077Y-91992744D01*
X154597465Y-91983576D01*
X154490286Y-91774214D01*
X154464286Y-91733730D01*
X154440958Y-91691664D01*
X154435071Y-91683259D01*
X154299734Y-91492899D01*
X154268498Y-91456980D01*
X154239703Y-91419089D01*
X154232674Y-91411612D01*
X154071923Y-91243000D01*
X154035934Y-91211972D01*
X154002077Y-91178633D01*
X153994052Y-91172236D01*
X153810637Y-91028121D01*
X153770267Y-91002345D01*
X153731665Y-90974000D01*
X153722804Y-90968824D01*
X153519471Y-90851952D01*
X153475133Y-90831942D01*
X153432159Y-90809184D01*
X153422638Y-90805355D01*
X153202135Y-90718474D01*
X153154476Y-90704893D01*
X153107746Y-90688457D01*
X153097762Y-90686082D01*
X152862835Y-90631939D01*
X152812903Y-90625473D01*
X152763451Y-90616105D01*
X152753223Y-90615259D01*
X152506619Y-90596600D01*
X152470326Y-90597407D01*
X152434138Y-90594703D01*
X152423880Y-90595012D01*
X152303630Y-90599479D01*
X152268301Y-90604273D01*
X152232668Y-90605568D01*
X152222508Y-90607011D01*
X151986583Y-90642193D01*
X151939163Y-90654088D01*
X151891093Y-90663002D01*
X151881254Y-90665918D01*
X151654415Y-90734862D01*
X151609447Y-90753494D01*
X151563399Y-90769256D01*
X151554090Y-90773576D01*
X151339921Y-90874794D01*
X151298052Y-90899848D01*
X151254711Y-90922222D01*
X151246134Y-90927856D01*
X151048219Y-91059868D01*
X151013689Y-91088134D01*
X150977162Y-91113768D01*
X150969424Y-91120508D01*
X150819495Y-91252969D01*
X150798202Y-91275851D01*
X150774516Y-91296244D01*
X150767482Y-91303716D01*
X150685610Y-91391904D01*
X150664010Y-91420286D01*
X150639735Y-91446393D01*
X150633570Y-91454597D01*
X150491625Y-91646299D01*
X150466506Y-91688240D01*
X150438822Y-91728529D01*
X150433926Y-91737548D01*
X150322277Y-91946697D01*
X150303649Y-91991682D01*
X150282237Y-92035381D01*
X150278709Y-92045018D01*
X150198842Y-92268032D01*
X150186953Y-92315352D01*
X150172127Y-92361818D01*
X150170046Y-92371868D01*
X150123445Y-92605161D01*
X150119015Y-92649569D01*
X150111313Y-92693521D01*
X150110608Y-92703759D01*
X150098257Y-92903439D01*
X150099557Y-92939564D01*
X150097345Y-92975633D01*
X144395220Y-92975633D01*
X144554868Y-92827438D01*
X144772856Y-92634905D01*
X144995059Y-92448213D01*
X145221394Y-92267378D01*
X145451743Y-92092449D01*
X145685988Y-91923475D01*
X145923956Y-91760542D01*
X146165563Y-91603675D01*
X146410770Y-91452873D01*
X146659297Y-91308284D01*
X146911122Y-91169898D01*
X147166165Y-91037745D01*
X147424212Y-90911927D01*
X147685154Y-90792482D01*
X147948917Y-90679442D01*
X148215336Y-90572873D01*
X148484349Y-90472805D01*
X148755779Y-90379308D01*
X149029522Y-90292425D01*
X149305439Y-90212212D01*
X149583492Y-90138696D01*
X149863431Y-90071961D01*
X150145229Y-90012034D01*
X150428726Y-89958972D01*
X150713804Y-89912825D01*
X151000382Y-89873636D01*
X151288325Y-89841460D01*
X151577474Y-89816349D01*
X151867726Y-89798351D01*
X152159031Y-89787514D01*
X152451165Y-89783891D01*
X152743298Y-89787514D01*
G37*
X152743298Y-89787514D02*
X153034603Y-89798351D01*
X153324852Y-89816349D01*
X153614004Y-89841460D01*
X153901947Y-89873636D01*
X154188525Y-89912825D01*
X154473603Y-89958972D01*
X154757100Y-90012034D01*
X155038898Y-90071961D01*
X155318846Y-90138698D01*
X155596880Y-90212209D01*
X155872808Y-90292425D01*
X156146549Y-90379307D01*
X156417992Y-90472809D01*
X156686993Y-90572873D01*
X156953412Y-90679442D01*
X157217175Y-90792482D01*
X157478133Y-90911934D01*
X157736164Y-91037745D01*
X157991174Y-91169880D01*
X158243032Y-91308284D01*
X158491559Y-91452874D01*
X158736731Y-91603652D01*
X158978373Y-91760542D01*
X159216350Y-91923481D01*
X159450560Y-92092430D01*
X159680935Y-92267378D01*
X159907275Y-92448217D01*
X160129496Y-92634924D01*
X160347441Y-92827420D01*
X160561081Y-93025732D01*
X160770237Y-93229763D01*
X160974247Y-93438898D01*
X161172561Y-93652538D01*
X161365094Y-93870526D01*
X161551786Y-94092729D01*
X161732621Y-94319064D01*
X161907550Y-94549413D01*
X162076524Y-94783658D01*
X162239457Y-95021626D01*
X162396324Y-95263233D01*
X162547126Y-95508440D01*
X162691715Y-95756967D01*
X162830101Y-96008792D01*
X162962254Y-96263835D01*
X163088072Y-96521882D01*
X163207520Y-96782830D01*
X163320553Y-97046575D01*
X163427128Y-97313012D01*
X163527194Y-97582019D01*
X163620691Y-97853449D01*
X163707574Y-98127192D01*
X163787787Y-98403109D01*
X163861303Y-98681162D01*
X163928038Y-98961101D01*
X163987965Y-99242899D01*
X164041027Y-99526396D01*
X164087174Y-99811474D01*
X164126363Y-100098052D01*
X164158539Y-100385995D01*
X164183650Y-100675144D01*
X164201648Y-100965396D01*
X164212485Y-101256701D01*
X164216050Y-101544092D01*
X164200604Y-102154906D01*
X164155152Y-102752645D01*
X164080330Y-103341465D01*
X163976895Y-103920671D01*
X163845577Y-104489640D01*
X163687123Y-105047641D01*
X163502253Y-105594006D01*
X163291691Y-106128036D01*
X163056179Y-106648978D01*
X162796423Y-107156147D01*
X162513160Y-107648788D01*
X162207123Y-108126161D01*
X161879068Y-108587485D01*
X161529721Y-109032033D01*
X161159822Y-109459060D01*
X160770117Y-109867807D01*
X160361391Y-110257490D01*
X159934355Y-110627398D01*
X159489803Y-110976746D01*
X159028476Y-111304802D01*
X158551134Y-111610821D01*
X158058476Y-111894092D01*
X157551324Y-112153840D01*
X157030373Y-112389357D01*
X156496348Y-112599917D01*
X155949964Y-112784792D01*
X155391961Y-112943248D01*
X154823006Y-113074562D01*
X154243791Y-113177998D01*
X153654974Y-113252820D01*
X153057234Y-113298273D01*
X152451165Y-113313598D01*
X151845096Y-113298273D01*
X151247353Y-113252820D01*
X150658534Y-113177998D01*
X150079323Y-113074562D01*
X149510368Y-112943248D01*
X148952365Y-112784792D01*
X148405981Y-112599917D01*
X147871963Y-112389360D01*
X147351021Y-112153848D01*
X146843843Y-111894087D01*
X146351210Y-111610829D01*
X145873852Y-111304802D01*
X145412527Y-110976746D01*
X144967961Y-110627387D01*
X144540938Y-110257491D01*
X144444836Y-110165866D01*
X150097053Y-110165866D01*
X150097362Y-110176124D01*
X150101829Y-110296373D01*
X150106624Y-110331709D01*
X150107919Y-110367339D01*
X150109361Y-110377499D01*
X150144544Y-110613422D01*
X150156442Y-110660854D01*
X150165353Y-110708906D01*
X150168268Y-110718745D01*
X150237211Y-110945585D01*
X150255844Y-110990557D01*
X150271607Y-111036607D01*
X150275927Y-111045916D01*
X150377147Y-111260084D01*
X150402202Y-111301954D01*
X150424572Y-111345289D01*
X150430207Y-111353866D01*
X150562218Y-111551782D01*
X150590488Y-111586317D01*
X150616119Y-111622840D01*
X150622859Y-111630578D01*
X150755321Y-111780508D01*
X150778209Y-111801806D01*
X150798599Y-111825489D01*
X150806070Y-111832524D01*
X150894258Y-111914394D01*
X150922639Y-111935993D01*
X150948744Y-111960266D01*
X150956948Y-111966431D01*
X151148650Y-112108376D01*
X151190597Y-112133498D01*
X151230883Y-112161180D01*
X151239902Y-112166076D01*
X151449050Y-112277724D01*
X151494025Y-112296348D01*
X151537731Y-112317763D01*
X151547368Y-112321290D01*
X151770381Y-112401157D01*
X151817701Y-112413046D01*
X151864169Y-112427873D01*
X151874218Y-112429954D01*
X152107513Y-112476555D01*
X152151923Y-112480985D01*
X152195868Y-112488686D01*
X152206106Y-112489392D01*
X152405785Y-112501744D01*
X152441915Y-112500444D01*
X152477983Y-112502656D01*
X152488235Y-112502211D01*
X152653799Y-112493850D01*
X152694516Y-112487771D01*
X152735586Y-112485111D01*
X152745701Y-112483381D01*
X152984826Y-112440760D01*
X153032808Y-112427267D01*
X153081501Y-112416669D01*
X153091246Y-112413451D01*
X153316862Y-112337177D01*
X153361476Y-112317053D01*
X153407236Y-112299753D01*
X153416403Y-112295141D01*
X153625765Y-112187962D01*
X153666256Y-112161957D01*
X153708318Y-112138631D01*
X153716724Y-112132744D01*
X153907083Y-111997405D01*
X153943005Y-111966165D01*
X153980889Y-111937376D01*
X153988366Y-111930347D01*
X154156976Y-111769597D01*
X154188011Y-111733601D01*
X154221345Y-111699748D01*
X154227742Y-111691724D01*
X154371856Y-111508308D01*
X154397636Y-111467931D01*
X154425977Y-111429334D01*
X154431153Y-111420473D01*
X154548023Y-111217140D01*
X154568031Y-111172803D01*
X154590789Y-111129831D01*
X154594618Y-111120309D01*
X154681498Y-110899807D01*
X154695079Y-110852145D01*
X154711514Y-110805419D01*
X154713889Y-110795436D01*
X154768032Y-110560508D01*
X154774498Y-110510573D01*
X154783866Y-110461121D01*
X154784712Y-110450894D01*
X154803370Y-110204290D01*
X154802455Y-110163115D01*
X154804975Y-110122021D01*
X154804530Y-110111769D01*
X154796169Y-109946204D01*
X154790091Y-109905491D01*
X154787431Y-109864423D01*
X154785701Y-109854307D01*
X154743082Y-109615184D01*
X154729588Y-109567196D01*
X154718991Y-109518505D01*
X154715773Y-109508760D01*
X154639500Y-109283143D01*
X154619376Y-109238529D01*
X154602076Y-109192769D01*
X154597464Y-109183601D01*
X154490285Y-108974239D01*
X154464285Y-108933755D01*
X154440957Y-108891689D01*
X154435070Y-108883284D01*
X154299733Y-108692924D01*
X154268493Y-108657001D01*
X154239700Y-108619112D01*
X154232671Y-108611635D01*
X154071921Y-108443025D01*
X154035930Y-108411994D01*
X154002076Y-108378659D01*
X153994051Y-108372262D01*
X153810636Y-108228147D01*
X153770261Y-108202368D01*
X153731663Y-108174026D01*
X153722802Y-108168849D01*
X153519470Y-108051978D01*
X153475132Y-108031969D01*
X153432158Y-108009210D01*
X153422637Y-108005382D01*
X153202133Y-107918501D01*
X153154479Y-107904922D01*
X153107745Y-107888484D01*
X153097761Y-107886109D01*
X152862834Y-107831966D01*
X152812902Y-107825500D01*
X152763450Y-107816132D01*
X152753223Y-107815286D01*
X152506620Y-107796627D01*
X152470326Y-107797434D01*
X152434138Y-107794730D01*
X152423880Y-107795039D01*
X152303630Y-107799506D01*
X152268301Y-107804300D01*
X152232668Y-107805595D01*
X152222508Y-107807038D01*
X151986583Y-107842220D01*
X151939155Y-107854117D01*
X151891096Y-107863029D01*
X151881256Y-107865944D01*
X151654418Y-107934887D01*
X151609441Y-107953522D01*
X151563398Y-107969283D01*
X151554089Y-107973603D01*
X151339920Y-108074823D01*
X151298056Y-108099874D01*
X151254712Y-108122249D01*
X151246135Y-108127883D01*
X151048220Y-108259895D01*
X151013693Y-108288159D01*
X150977165Y-108313793D01*
X150969427Y-108320534D01*
X150819498Y-108452994D01*
X150798206Y-108475874D01*
X150774520Y-108496267D01*
X150767485Y-108503739D01*
X150685614Y-108591926D01*
X150664014Y-108620308D01*
X150639736Y-108646418D01*
X150633571Y-108654622D01*
X150491626Y-108846324D01*
X150466507Y-108888265D01*
X150438823Y-108928554D01*
X150433927Y-108937573D01*
X150322278Y-109146722D01*
X150303652Y-109191701D01*
X150282238Y-109235405D01*
X150278711Y-109245042D01*
X150198844Y-109468055D01*
X150186955Y-109515375D01*
X150172128Y-109561843D01*
X150170047Y-109571892D01*
X150123446Y-109805186D01*
X150119016Y-109849598D01*
X150111315Y-109893542D01*
X150110609Y-109903780D01*
X150098257Y-110103459D01*
X150099381Y-110134705D01*
X150097053Y-110165866D01*
X144444836Y-110165866D01*
X144132191Y-109867786D01*
X143742508Y-109459060D01*
X143372608Y-109032034D01*
X143023253Y-108587475D01*
X142695206Y-108126161D01*
X142663690Y-108077000D01*
X147320000Y-108077000D01*
X147344776Y-108074560D01*
X147368601Y-108067333D01*
X147390557Y-108055597D01*
X147409803Y-108039803D01*
X147425597Y-108020557D01*
X147437333Y-107998601D01*
X147444560Y-107974776D01*
X147447000Y-107950000D01*
X147447000Y-95885000D01*
X147444560Y-95860224D01*
X147437333Y-95836399D01*
X147425597Y-95814443D01*
X147409803Y-95795197D01*
X147390557Y-95779403D01*
X147368601Y-95767667D01*
X147344776Y-95760440D01*
X147320000Y-95758000D01*
X142240000Y-95758000D01*
X142215224Y-95760440D01*
X142207402Y-95762813D01*
X142210614Y-95756967D01*
X142355204Y-95508440D01*
X142505982Y-95263268D01*
X142662872Y-95021626D01*
X142825811Y-94783649D01*
X142994760Y-94549439D01*
X143169708Y-94319064D01*
X143350547Y-94092724D01*
X143537254Y-93870503D01*
X143729750Y-93652558D01*
X143928062Y-93438918D01*
X144132093Y-93229763D01*
X144341228Y-93025752D01*
X144395220Y-92975633D01*
X150097345Y-92975633D01*
X150097790Y-92985885D01*
X150106151Y-93151449D01*
X150112230Y-93192169D01*
X150114890Y-93233232D01*
X150116619Y-93243348D01*
X150159239Y-93482472D01*
X150172733Y-93530458D01*
X150183331Y-93579153D01*
X150186550Y-93588898D01*
X150262823Y-93814513D01*
X150282945Y-93859123D01*
X150300247Y-93904887D01*
X150304859Y-93914055D01*
X150412039Y-94123417D01*
X150438046Y-94163912D01*
X150461370Y-94205969D01*
X150467257Y-94214375D01*
X150602596Y-94404734D01*
X150633837Y-94440658D01*
X150662627Y-94478542D01*
X150669656Y-94486019D01*
X150830407Y-94654629D01*
X150866396Y-94685657D01*
X150900252Y-94718995D01*
X150908277Y-94725392D01*
X151091692Y-94869505D01*
X151132058Y-94895279D01*
X151170668Y-94923629D01*
X151179530Y-94928805D01*
X151382864Y-95045675D01*
X151427198Y-95065682D01*
X151470173Y-95088441D01*
X151479694Y-95092270D01*
X151700197Y-95179149D01*
X151747847Y-95192727D01*
X151794586Y-95209166D01*
X151804569Y-95211541D01*
X152039496Y-95265683D01*
X152089435Y-95272149D01*
X152138881Y-95281516D01*
X152149109Y-95282362D01*
X152395714Y-95301020D01*
X152436888Y-95300105D01*
X152477983Y-95302625D01*
X152488236Y-95302180D01*
X152653799Y-95293819D01*
X152694516Y-95287740D01*
X152735585Y-95285080D01*
X152745700Y-95283350D01*
X152984825Y-95240729D01*
X153032804Y-95227237D01*
X153081498Y-95216639D01*
X153091243Y-95213420D01*
X153316859Y-95137147D01*
X153361473Y-95117023D01*
X153407234Y-95099723D01*
X153416401Y-95095111D01*
X153625763Y-94987932D01*
X153666250Y-94961930D01*
X153708314Y-94938603D01*
X153716720Y-94932715D01*
X153907079Y-94797377D01*
X153942999Y-94766139D01*
X153980887Y-94737347D01*
X153988364Y-94730318D01*
X154156974Y-94569568D01*
X154188010Y-94533571D01*
X154221342Y-94499720D01*
X154227739Y-94491696D01*
X154371852Y-94308282D01*
X154397629Y-94267910D01*
X154425972Y-94229311D01*
X154431148Y-94220450D01*
X154548019Y-94017117D01*
X154568028Y-93972779D01*
X154590787Y-93929805D01*
X154594616Y-93920283D01*
X154681496Y-93699781D01*
X154695076Y-93652124D01*
X154711511Y-93605397D01*
X154713886Y-93595413D01*
X154768030Y-93360486D01*
X154774496Y-93310556D01*
X154783865Y-93261099D01*
X154784711Y-93250872D01*
X154803370Y-93004270D01*
X154802455Y-92963096D01*
X154804975Y-92922002D01*
X154804530Y-92911749D01*
X154796170Y-92746184D01*
X154790091Y-92705465D01*
X154787431Y-92664396D01*
X154785702Y-92654281D01*
X154743082Y-92415156D01*
X154729587Y-92367163D01*
X154718992Y-92318483D01*
X154715774Y-92308738D01*
X154639502Y-92083121D01*
X154619377Y-92038504D01*
X154602077Y-91992744D01*
X154597465Y-91983576D01*
X154490286Y-91774214D01*
X154464286Y-91733730D01*
X154440958Y-91691664D01*
X154435071Y-91683259D01*
X154299734Y-91492899D01*
X154268498Y-91456980D01*
X154239703Y-91419089D01*
X154232674Y-91411612D01*
X154071923Y-91243000D01*
X154035934Y-91211972D01*
X154002077Y-91178633D01*
X153994052Y-91172236D01*
X153810637Y-91028121D01*
X153770267Y-91002345D01*
X153731665Y-90974000D01*
X153722804Y-90968824D01*
X153519471Y-90851952D01*
X153475133Y-90831942D01*
X153432159Y-90809184D01*
X153422638Y-90805355D01*
X153202135Y-90718474D01*
X153154476Y-90704893D01*
X153107746Y-90688457D01*
X153097762Y-90686082D01*
X152862835Y-90631939D01*
X152812903Y-90625473D01*
X152763451Y-90616105D01*
X152753223Y-90615259D01*
X152506619Y-90596600D01*
X152470326Y-90597407D01*
X152434138Y-90594703D01*
X152423880Y-90595012D01*
X152303630Y-90599479D01*
X152268301Y-90604273D01*
X152232668Y-90605568D01*
X152222508Y-90607011D01*
X151986583Y-90642193D01*
X151939163Y-90654088D01*
X151891093Y-90663002D01*
X151881254Y-90665918D01*
X151654415Y-90734862D01*
X151609447Y-90753494D01*
X151563399Y-90769256D01*
X151554090Y-90773576D01*
X151339921Y-90874794D01*
X151298052Y-90899848D01*
X151254711Y-90922222D01*
X151246134Y-90927856D01*
X151048219Y-91059868D01*
X151013689Y-91088134D01*
X150977162Y-91113768D01*
X150969424Y-91120508D01*
X150819495Y-91252969D01*
X150798202Y-91275851D01*
X150774516Y-91296244D01*
X150767482Y-91303716D01*
X150685610Y-91391904D01*
X150664010Y-91420286D01*
X150639735Y-91446393D01*
X150633570Y-91454597D01*
X150491625Y-91646299D01*
X150466506Y-91688240D01*
X150438822Y-91728529D01*
X150433926Y-91737548D01*
X150322277Y-91946697D01*
X150303649Y-91991682D01*
X150282237Y-92035381D01*
X150278709Y-92045018D01*
X150198842Y-92268032D01*
X150186953Y-92315352D01*
X150172127Y-92361818D01*
X150170046Y-92371868D01*
X150123445Y-92605161D01*
X150119015Y-92649569D01*
X150111313Y-92693521D01*
X150110608Y-92703759D01*
X150098257Y-92903439D01*
X150099557Y-92939564D01*
X150097345Y-92975633D01*
X144395220Y-92975633D01*
X144554868Y-92827438D01*
X144772856Y-92634905D01*
X144995059Y-92448213D01*
X145221394Y-92267378D01*
X145451743Y-92092449D01*
X145685988Y-91923475D01*
X145923956Y-91760542D01*
X146165563Y-91603675D01*
X146410770Y-91452873D01*
X146659297Y-91308284D01*
X146911122Y-91169898D01*
X147166165Y-91037745D01*
X147424212Y-90911927D01*
X147685154Y-90792482D01*
X147948917Y-90679442D01*
X148215336Y-90572873D01*
X148484349Y-90472805D01*
X148755779Y-90379308D01*
X149029522Y-90292425D01*
X149305439Y-90212212D01*
X149583492Y-90138696D01*
X149863431Y-90071961D01*
X150145229Y-90012034D01*
X150428726Y-89958972D01*
X150713804Y-89912825D01*
X151000382Y-89873636D01*
X151288325Y-89841460D01*
X151577474Y-89816349D01*
X151867726Y-89798351D01*
X152159031Y-89787514D01*
X152451165Y-89783891D01*
X152743298Y-89787514D01*
G36*
X142113000Y-107168484D02*
G01*
X142105906Y-107156147D01*
X141846158Y-106648994D01*
X141610641Y-106128043D01*
X141400076Y-105594005D01*
X141215206Y-105047641D01*
X141056753Y-104489645D01*
X140925434Y-103920671D01*
X140821999Y-103341461D01*
X140747177Y-102752643D01*
X140701725Y-102154907D01*
X140686280Y-101544092D01*
X140689844Y-101256701D01*
X140700681Y-100965396D01*
X140718679Y-100675147D01*
X140743790Y-100385995D01*
X140775966Y-100098052D01*
X140815155Y-99811474D01*
X140861302Y-99526396D01*
X140914364Y-99242899D01*
X140974291Y-98961101D01*
X141041028Y-98681153D01*
X141114539Y-98403119D01*
X141194755Y-98127191D01*
X141281637Y-97853450D01*
X141375139Y-97582007D01*
X141475203Y-97313006D01*
X141581772Y-97046587D01*
X141694812Y-96782824D01*
X141814264Y-96521866D01*
X141940075Y-96263835D01*
X142072210Y-96008825D01*
X142113000Y-95934599D01*
X142113000Y-107168484D01*
G37*
X142113000Y-107168484D02*
X142105906Y-107156147D01*
X141846158Y-106648994D01*
X141610641Y-106128043D01*
X141400076Y-105594005D01*
X141215206Y-105047641D01*
X141056753Y-104489645D01*
X140925434Y-103920671D01*
X140821999Y-103341461D01*
X140747177Y-102752643D01*
X140701725Y-102154907D01*
X140686280Y-101544092D01*
X140689844Y-101256701D01*
X140700681Y-100965396D01*
X140718679Y-100675147D01*
X140743790Y-100385995D01*
X140775966Y-100098052D01*
X140815155Y-99811474D01*
X140861302Y-99526396D01*
X140914364Y-99242899D01*
X140974291Y-98961101D01*
X141041028Y-98681153D01*
X141114539Y-98403119D01*
X141194755Y-98127191D01*
X141281637Y-97853450D01*
X141375139Y-97582007D01*
X141475203Y-97313006D01*
X141581772Y-97046587D01*
X141694812Y-96782824D01*
X141814264Y-96521866D01*
X141940075Y-96263835D01*
X142072210Y-96008825D01*
X142113000Y-95934599D01*
X142113000Y-107168484D01*
M02*
