<?xml version="1.0" encoding="UTF-8" standalone="no"?>
<svg
   xmlns:dc="http://purl.org/dc/elements/1.1/"
   xmlns:cc="http://creativecommons.org/ns#"
   xmlns:rdf="http://www.w3.org/1999/02/22-rdf-syntax-ns#"
   xmlns:svg="http://www.w3.org/2000/svg"
   xmlns="http://www.w3.org/2000/svg"
   viewBox="0 0 1728 864"
   id="svg91"
   height="864"
   width="1728"
   version="1.1">
  <metadata
     id="metadata97">
    <rdf:RDF>
      <cc:Work
         rdf:about="">
        <dc:format>image/svg+xml</dc:format>
        <dc:type
           rdf:resource="http://purl.org/dc/dcmitype/StillImage" />
      </cc:Work>
    </rdf:RDF>
  </metadata>
  <defs
     id="defs95" />
  <path
     id="path2"
     style="fill:none;stroke:#000000;stroke-width:0.21600001;stroke-linecap:round;stroke-linejoin:miter;stroke-dasharray:none"
     d="m 268.1198,361.9803 v -30.096 h -8.496 v -23.4 h 8.496 v -23.328 -6.768 h -39.384 v 8.496 h -23.328 v -8.496 h -23.4 v 8.496 h -23.328 v -8.496 h -23.4 v 8.496 h -3.4041 v 75.096 h 22.8673 v -26.928 h 77.9528 v 26.928 z M 56.7575,278.3883 H 41.8238 25.8398 v 30.096 h 8.496 v 23.4 h -8.496 v 23.328 6.768 h 30.9177 z" />
  <path
     id="path4"
     style="fill:none;stroke:#000000;stroke-width:0.21600001;stroke-linecap:round;stroke-linejoin:miter;stroke-dasharray:none"
     d="m 515.7777,304.698 v -30.096 h 8.496 v -23.4 h -8.496 v -23.328 -6.768 h -30.888 v 8.496 h -23.328 v -8.496 h -23.4 v 8.496 h -23.328 v -8.496 h -23.4 v 8.496 h -23.328 v -8.496 h -23.4 v 8.496 h -23.328 v -8.496 h -23.4 -7.488 v 30.096 h -8.496 v 23.4 h 8.496 v 23.328 6.768 z" />
  <path
     id="path6"
     style="fill:none;stroke:#000000;stroke-width:0.21600001;stroke-linecap:round;stroke-linejoin:miter;stroke-dasharray:none"
     d="M 534.6292,114.645 V 84.549 h -8.496 v -23.4 h 8.496 V 37.821 31.053 h -39.384 v 8.496 h -23.328 v -8.496 h -23.4 v 8.496 h -23.328 v -8.496 h -23.4 v 8.496 h -23.328 v -8.496 h -23.4 v 8.496 h -23.328 v -8.496 h -23.4 -15.984 v 30.096 h 8.496 v 23.4 h -8.496 v 23.328 6.768 h 24.141 V 84.549 h 56.664 v 30.096 z" />
  <path
     id="path8"
     style="fill:none;stroke:#000000;stroke-width:0.21600001;stroke-linecap:round;stroke-linejoin:miter;stroke-dasharray:none"
     d="m 517.5232,210.5181 v -30.096 h 8.496 v -23.4 h -8.496 v -23.328 -6.768 h -30.888 v 8.496 h -23.328 v -8.496 h -23.4 v 8.496 h -23.328 v -8.496 h -23.4 v 8.496 h -23.328 v -8.496 h -23.4 v 8.496 h -23.328 v -8.496 h -23.4 -7.488 v 30.096 h -8.496 v 23.4 h 8.496 v 23.328 6.768 h 25.5119 v -28.3465 h 53.8582 v 28.3465 z" />
  <g
     id="Layer1000">
    <path
       id="path10"
       style="fill:none;stroke:#000000;stroke-width:0.21600001;stroke-linecap:round;stroke-linejoin:miter;stroke-dasharray:none"
       d="m 35.2956,36.4079 v 30.888 h -8.496 v 23.328 h 8.496 v 23.4 h -8.496 v 23.328 h 8.496 v 23.4 h -8.496 v 23.328 h 8.496 v 23.4 h -8.496 v 23.328 h 8.496 v 23.4 7.488 h 22.6772 v -48.1893 h 75.1181 v 56.6853 h 3.1487 v -8.496 h 23.4 v 8.496 h 23.328 v -8.496 h 23.4 v 8.496 h 23.328 v -8.496 h 23.4 7.488 v -30.888 h 8.496 v -23.328 h -8.496 v -23.4 h 8.496 v -23.328 h -8.496 v -23.4 h 8.496 v -23.328 h -8.496 v -23.4 h 8.496 v -23.328 h -8.496 v -23.4 -7.488 h -30.888 v -8.496 h -23.328 v 8.496 h -23.4 v -8.496 h -23.328 v 8.496 h -23.4 v -8.496 h -23.328 v 8.496 h -23.4 v -8.496 h -23.328 v 8.496 h -23.4 z" />
    <path
       id="path12"
       style="fill:none;stroke:#1b1918;stroke-width:0.21600001;stroke-linecap:butt;stroke-linejoin:miter;stroke-dasharray:none"
       d="m 235.0718,71.841 a 7.0866,7.0868 0 0 1 7.0866,7.0868 7.0866,7.0868 0 1 1 -7.0866,-7.0868 z" />
  </g>
  <text
     id="text17"
     y="195.3643"
     x="60.895599">
    <tspan
       style="font-size:15px;font-family:Arial;fill:#1b1918"
       id="tspan15"
       font-size="15.0000">VIN</tspan>
  </text>
  <text
     id="text21"
     y="206.5714"
     x="62.955799">
    <tspan
       style="font-size:24px;font-family:Arial;fill:#1b1918"
       id="tspan19"
       font-size="24.0000">-</tspan>
  </text>
  <text
     id="text25"
     y="211.29021"
     x="77.034599">
    <tspan
       style="font-size:24px;font-family:Arial;fill:#1b1918"
       id="tspan23"
       font-size="24.0000">+</tspan>
  </text>
  <text
     id="text29"
     y="195.7473"
     x="98.340698">
    <tspan
       style="font-size:15px;font-family:Arial;fill:#1b1918"
       id="tspan27"
       font-size="15.0000">OUT</tspan>
  </text>
  <text
     id="text33"
     y="209.9563"
     x="100.529">
    <tspan
       style="font-size:16px;font-family:Arial;fill:#1b1918"
       id="tspan31"
       font-size="16.0000">A</tspan>
  </text>
  <text
     id="text37"
     y="209.9897"
     x="117.9502">
    <tspan
       style="font-size:16px;font-family:Arial;fill:#1b1918"
       id="tspan35"
       font-size="16.0000">B</tspan>
  </text>
  <text
     id="text41"
     y="327.86081"
     x="155.7592">
    <tspan
       style="font-size:12px;font-family:Arial;fill:#1b1918"
       id="tspan39"
       font-size="12.0000">Quad</tspan>
  </text>
  <text
     id="text45"
     y="333.28369"
     x="156.6524">
    <tspan
       style="font-size:5.5px;font-family:Arial;fill:#1b1918"
       id="tspan43"
       font-size="5.5000">5V A GND B</tspan>
  </text>
  <text
     id="text49"
     y="327.3222"
     x="206.31461">
    <tspan
       style="font-size:12px;font-family:Arial;fill:#1b1918"
       id="tspan47"
       font-size="12.0000">I2C</tspan>
  </text>
  <text
     id="text53"
     y="332.92709"
     x="194.94">
    <tspan
       style="font-size:4.5px;font-family:Arial;fill:#1b1918"
       id="tspan51"
       font-size="4.5000">5V SCL SDA GND</tspan>
  </text>
  <text
     id="text57"
     y="173.32471"
     x="325.9451">
    <tspan
       style="font-size:14px;font-family:Arial;fill:#1b1918"
       id="tspan55"
       font-size="14.0000">Motor</tspan>
  </text>
  <text
     id="text61"
     y="180.70239"
     x="318.479">
    <tspan
       style="font-size:4.5px;font-family:Arial;fill:#1b1918"
       id="tspan59"
       font-size="4.5000">5V DA DB PWM CS GND</tspan>
  </text>
  <text
     id="text65"
     y="71.922897"
     x="318.15579">
    <tspan
       style="font-size:9px;font-family:Arial;fill:#1b1918"
       id="tspan63"
       font-size="9.0000">ICSP + UART</tspan>
  </text>
  <text
     id="text69"
     y="82.532097"
     x="316.8428">
    <tspan
       style="font-size:4px;font-family:Arial;fill:#1b1918"
       id="tspan67"
       font-size="4.0000">5V MOSI RST SCK MISO GND</tspan>
  </text>
  <text
     id="text73"
     y="78.0168"
     x="356.2894">
    <tspan
       style="font-size:5px;font-family:Arial;fill:#1b1918"
       id="tspan71"
       font-size="5.0000">RX TX</tspan>
  </text>
  <text
     id="text77"
     y="68.547699"
     x="220.40109">
    <tspan
       style="font-size:11px;font-family:Arial;fill:#1b1918"
       id="tspan75"
       font-size="11.0000">Reset</tspan>
  </text>
  <text
     id="text81"
     y="147.6507"
     x="208.8573">
    <tspan
       style="font-size:10px;font-family:Arial;fill:#1b1918"
       id="tspan79"
       font-size="10.0000">Signal</tspan>
  </text>
  <text
     id="text85"
     y="163.1494"
     x="210.2431">
    <tspan
       style="font-size:10px;font-family:Arial;fill:#1b1918"
       id="tspan83"
       font-size="10.0000">Power</tspan>
  </text>
  <text
     id="text89"
     y="81.908798"
     x="59.337601">
    <tspan
       style="font-size:24px;font-family:Arial;fill:#1b1918"
       id="tspan87"
       font-size="24.0000">CLMC V1</tspan>
  </text>
</svg>
